<svg width="20" height="20" viewBox="0 0 20 20" fill="none" xmlns="http://www.w3.org/2000/svg">
<path d="M7.63411 9.05817C7.55078 9.04984 7.45078 9.04984 7.35911 9.05817C5.37578 8.9915 3.80078 7.3665 3.80078 5.3665C3.80078 3.32484 5.45078 1.6665 7.50078 1.6665C9.54245 1.6665 11.2008 3.32484 11.2008 5.3665C11.1924 7.3665 9.61745 8.9915 7.63411 9.05817Z" stroke="white" stroke-width="1.46505" stroke-linecap="round" stroke-linejoin="round"/>
<path d="M13.6767 3.33325C15.2934 3.33325 16.5934 4.64159 16.5934 6.24992C16.5934 7.82492 15.3434 9.10825 13.785 9.16659C13.7184 9.15825 13.6434 9.15825 13.5684 9.16659" stroke="white" stroke-width="1.46505" stroke-linecap="round" stroke-linejoin="round"/>
<path d="M3.46758 12.1333C1.45091 13.4833 1.45091 15.6833 3.46758 17.0249C5.75925 18.5583 9.51758 18.5583 11.8092 17.0249C13.8259 15.6749 13.8259 13.4749 11.8092 12.1333C9.52591 10.6083 5.76758 10.6083 3.46758 12.1333Z" stroke="white" stroke-width="1.46505" stroke-linecap="round" stroke-linejoin="round"/>
<path d="M15.2832 16.6663C15.8832 16.5413 16.4499 16.2996 16.9165 15.9413C18.2165 14.9663 18.2165 13.3579 16.9165 12.3829C16.4582 12.0329 15.8999 11.7996 15.3082 11.6663" stroke="white" stroke-width="1.46505" stroke-linecap="round" stroke-linejoin="round"/>
</svg>
