<svg width="21" height="21" viewBox="0 0 21 21" fill="none" xmlns="http://www.w3.org/2000/svg">
<path d="M7.99984 10.9533L9.6665 12.62L12.9998 9.28664M18.8332 7.61997V15.12C18.8332 16.0404 18.087 16.7866 17.1665 16.7866H3.83317C2.9127 16.7866 2.1665 16.0404 2.1665 15.12V7.61997C2.1665 6.6995 2.9127 5.95331 3.83317 5.95331H5.4412C5.99845 5.95331 6.51884 5.67481 6.82795 5.21114L7.50506 4.19547C7.81417 3.73181 8.33456 3.45331 8.89181 3.45331H12.1079C12.6651 3.45331 13.1855 3.73181 13.4946 4.19547L14.1717 5.21114C14.4808 5.67481 15.0012 5.95331 15.5585 5.95331H17.1665C18.087 5.95331 18.8332 6.6995 18.8332 7.61997Z" stroke="#6B7280" stroke-width="1.2" stroke-linecap="round" stroke-linejoin="round"/>
</svg>
