<svg width="20" height="21" viewBox="0 0 20 21" fill="none" xmlns="http://www.w3.org/2000/svg">
<path d="M10 3.12C6.13401 3.12 3 6.254 3 10.12C3 13.986 6.13401 17.12 10 17.12C13.866 17.12 17 13.986 17 10.12C17 6.254 13.866 3.12 10 3.12ZM2 10.12C2 5.70172 5.58172 2.12 10 2.12C14.4183 2.12 18 5.70172 18 10.12C18 14.5383 14.4183 18.12 10 18.12C5.58172 18.12 2 14.5383 2 10.12ZM7.175 5.7034C7.44985 4.92579 8.54943 4.92544 8.82478 5.70287L9.08202 6.42916C9.18275 6.71356 9.4065 6.93728 9.69091 7.03797L10.4165 7.29486C11.1939 7.57008 11.1938 8.66945 10.4164 8.94457L9.69105 9.20128C9.40656 9.30196 9.18276 9.52573 9.08203 9.8102L8.82481 10.5366C8.5495 11.3141 7.44979 11.3138 7.17498 10.5361L6.91872 9.8109C6.81806 9.52604 6.59401 9.30196 6.30917 9.20126L5.58335 8.94466C4.8056 8.66971 4.80553 7.56982 5.58326 7.29477L6.30931 7.03799C6.59408 6.93728 6.81807 6.71325 6.91873 6.42846L7.175 5.7034ZM12.6719 10.1195C12.4725 9.45434 11.5306 9.45406 11.3309 10.1191L11.1524 10.7133C11.0719 10.9816 10.862 11.1914 10.5938 11.2718L10.0008 11.4498C9.33542 11.6494 9.33576 12.5917 10.0013 12.7909L10.5932 12.968C10.8618 13.0483 11.0719 13.2583 11.1525 13.5268L11.3309 14.1216C11.5305 14.7868 12.4726 14.7866 12.6719 14.1213L12.8497 13.5281C12.9302 13.2596 13.1401 13.0496 13.4085 12.9691L14.0023 12.791C14.6675 12.5914 14.6675 11.6495 14.0023 11.45L13.4085 11.2719C13.1401 11.1914 12.9301 10.9814 12.8497 10.713L12.6719 10.1195Z" fill="#6B7280"/>
</svg>
