<svg width="20" height="21" viewBox="0 0 20 21" fill="none" xmlns="http://www.w3.org/2000/svg">
<path d="M4 4.62C4 4.34385 3.77614 4.12 3.5 4.12C3.22386 4.12 3 4.34385 3 4.62C3 4.89614 3.22386 5.12 3.5 5.12C3.77614 5.12 4 4.89614 4 4.62ZM5 4.62C5 5.44842 4.32843 6.12 3.5 6.12C2.67157 6.12 2 5.44842 2 4.62C2 3.79157 2.67157 3.12 3.5 3.12C4.32843 3.12 5 3.79157 5 4.62ZM9.75245 3.62C8.20441 3.62 6.87156 4.71266 6.56797 6.23065L6.50971 6.52194C6.45555 6.79272 6.63116 7.05613 6.90194 7.11029C7.17272 7.16444 7.43613 6.98883 7.49029 6.71805L7.54855 6.42676C7.75866 5.3762 8.68109 4.62 9.75245 4.62C10.9934 4.62 12 5.62719 12 6.86877C12 8.11171 10.9923 9.12001 9.74999 9.12001H2.5C2.22386 9.12001 2 9.34387 2 9.62001C2 9.89615 2.22386 10.12 2.5 10.12H9.74999C11.5452 10.12 13 8.66341 13 6.86877C13 5.07549 11.5463 3.62 9.75245 3.62ZM15.4998 8.12C14.1192 8.12 13 9.23942 13 10.62C13 10.8961 13.2239 11.12 13.5 11.12C13.7761 11.12 14 10.8961 14 10.62C14 9.7916 14.6716 9.12 15.4998 9.12C16.3282 9.12 16.9997 9.79155 16.9997 10.6199C16.9997 11.4484 16.3281 12.12 15.4997 12.12H2.5C2.22386 12.12 2 12.3438 2 12.62C2 12.8961 2.22386 13.12 2.5 13.12H8.99688L9 13.12H12.25C12.9404 13.12 13.5 13.6796 13.5 14.37C13.5 15.0584 12.9371 15.62 12.2449 15.62C11.6277 15.62 11.0991 15.1734 10.9982 14.5676L10.9932 14.5378C10.9478 14.2654 10.6902 14.0814 10.4178 14.1268C10.1454 14.1722 9.96141 14.4298 10.0068 14.7022L10.0118 14.732C10.1936 15.823 11.1419 16.62 12.2449 16.62C13.4856 16.62 14.5 15.6145 14.5 14.37C14.5 13.9075 14.3604 13.4775 14.1211 13.12H15.4997C16.8804 13.12 17.9997 12.0006 17.9997 10.6199C17.9997 9.23931 16.8805 8.12 15.4998 8.12ZM6.5 17.12C6.22386 17.12 6 16.8961 6 16.62C6 16.3439 6.22386 16.12 6.5 16.12C6.77614 16.12 7 16.3439 7 16.62C7 16.8961 6.77614 17.12 6.5 17.12ZM6.5 18.12C7.32843 18.12 8 17.4484 8 16.62C8 15.7916 7.32843 15.12 6.5 15.12C5.67157 15.12 5 15.7916 5 16.62C5 17.4484 5.67157 18.12 6.5 18.12ZM17 5.62C17 5.34385 16.7761 5.12 16.5 5.12C16.2239 5.12 16 5.34385 16 5.62C16 5.89614 16.2239 6.12 16.5 6.12C16.7761 6.12 17 5.89614 17 5.62ZM18 5.62C18 6.44842 17.3284 7.12 16.5 7.12C15.6716 7.12 15 6.44842 15 5.62C15 4.79157 15.6716 4.12 16.5 4.12C17.3284 4.12 18 4.79157 18 5.62Z" fill="#6B7280"/>
</svg>
