<svg width="14" height="16" viewBox="0 0 14 16" fill="none" xmlns="http://www.w3.org/2000/svg">
<path d="M12.326 4.71571C13.0839 4.27782 13.606 3.46942 13.606 2.52627C13.606 1.14524 12.4776 0 11.0797 0C9.68184 0 8.55343 1.1284 8.55343 2.52627C8.55343 3.28416 8.89027 3.97467 9.42921 4.4294C8.89027 4.73255 8.45238 5.23781 8.26712 5.8778L7.81239 7.44409C7.91344 7.49461 8.01449 7.56198 8.0987 7.62935L8.67133 8.10092L9.26079 6.16411C9.47973 5.45675 10.1871 5.00202 10.9113 5.13676C11.3492 5.20412 11.7365 5.47359 11.9555 5.86096C12.1744 6.24832 12.225 6.70305 12.0734 7.12409L10.9787 10.0209L11.8039 10.7114L13.0165 7.46093C13.286 6.77041 13.2186 5.97885 12.8313 5.33886C12.6965 5.10307 12.5281 4.88413 12.326 4.71571ZM11.0965 1.01051C11.9218 1.01051 12.6123 1.68418 12.6123 2.52627C12.6123 3.36837 11.9386 4.04204 11.0965 4.04204C10.2713 4.04204 9.58078 3.36837 9.58078 2.52627C9.58078 1.68418 10.2545 1.01051 11.0965 1.01051Z" fill="#6B7280"/>
<path d="M6.07727 11.2338C5.85833 11.2338 5.65622 11.3685 5.58886 11.5874L4.61203 14.5516C4.51098 14.8716 4.14046 15.0737 3.80362 14.9558C3.6352 14.9053 3.50047 14.7874 3.4331 14.6358C3.36573 14.4842 3.34889 14.299 3.39942 14.1474L4.62887 10.3917C4.71308 10.1222 4.96571 9.95378 5.23518 9.95378H6.80147L6.43095 9.65063C6.212 9.46537 6.06043 9.21274 5.99306 8.94327H5.25202C4.52782 8.94327 3.90467 9.398 3.68573 10.0717L2.45628 13.8274C2.32154 14.2484 2.35522 14.7032 2.54048 15.0905C2.74259 15.4779 3.07942 15.7811 3.50047 15.9158C3.66889 15.9663 3.83731 16 4.02257 16C4.74676 16 5.36991 15.5453 5.58886 14.8716L6.44779 12.2611H9.56353L8.35092 11.2506H6.07727V11.2338Z" fill="#6B7280"/>
<path d="M7.52634 4.32848C7.52634 2.25694 5.84216 0.555912 3.75377 0.555912C1.66539 0.555912 -0.00195312 2.25694 -0.00195312 4.32848C-0.00195312 6.40003 1.68223 8.10105 3.77062 8.10105C5.859 8.10105 7.52634 6.40003 7.52634 4.32848ZM1.00856 4.32848C1.00856 2.81272 2.23801 1.56642 3.77062 1.56642C5.30322 1.56642 6.53268 2.79588 6.53268 4.32848C6.53268 5.86109 5.28638 7.09054 3.75377 7.09054C2.22117 7.09054 1.00856 5.84425 1.00856 4.32848Z" fill="#6B7280"/>
<path d="M7.59397 8.25236C7.37502 8.0671 7.05503 8.10078 6.88661 8.31972C6.70135 8.53867 6.73503 8.85866 6.95398 9.02708L10.7097 12.1597C10.8108 12.2439 10.9118 12.2776 11.0297 12.2776C11.1813 12.2776 11.316 12.2102 11.4171 12.0923C11.6023 11.8733 11.5686 11.5534 11.3497 11.3849L7.59397 8.25236Z" fill="#6B7280"/>
</svg>
