<svg width="32" height="32" viewBox="0 0 32 32" fill="none" xmlns="http://www.w3.org/2000/svg">
<g clip-path="url(#clip0_3098_24292)">
<path d="M12.8288 0.495338L12.8288 5.10216C12.8352 5.44372 12.708 5.77434 12.4744 6.02357C12.2708 6.23905 11.991 6.36617 11.6948 6.37786L6.98152 6.37786C6.84054 6.37786 6.7054 6.4339 6.60571 6.53359C6.50603 6.63328 6.44998 6.76853 6.44998 6.90951L6.44998 11.6226C6.4029 11.9163 6.26689 12.1884 6.06022 12.4023C5.94753 12.525 5.81062 12.6229 5.65814 12.69C5.50565 12.7571 5.34088 12.7918 5.17429 12.792L0.602828 12.792C0.461849 12.792 0.326598 12.8481 0.226911 12.9478C0.127224 13.0474 0.0712882 13.1827 0.0712882 13.3237L0.0712884 17.7179C0.080252 18.0628 0.221287 18.3911 0.465266 18.6351C0.709245 18.879 1.03753 19.0201 1.38246 19.029L5.95392 19.029C6.0949 19.029 6.23004 18.9731 6.32973 18.8734C6.42941 18.7737 6.48546 18.6385 6.48546 18.4975L6.48546 14.1741C6.48311 14.0104 6.5132 13.8478 6.57403 13.6957C6.63485 13.5436 6.72522 13.4052 6.83985 13.2882C7.06589 13.0789 7.35 12.943 7.65484 12.8984L11.7302 12.8984C12.0435 12.9335 12.3326 13.0831 12.542 13.3187C12.7514 13.5543 12.8661 13.859 12.8642 14.1741L12.8642 31.5739C12.8639 31.709 12.915 31.8391 13.0071 31.9378C13.0993 32.0365 13.2256 32.0965 13.3603 32.1055L18.7113 32.1055C18.8523 32.1055 18.9875 32.0495 19.0872 31.9498C19.1869 31.8501 19.243 31.7149 19.243 31.5739L19.243 14.1741C19.2402 13.8332 19.3667 13.5039 19.5972 13.2527C19.7913 13.0643 20.0389 12.9406 20.306 12.8984L24.4523 12.8984C24.7507 12.9298 25.0277 13.0682 25.2319 13.2882C25.4701 13.523 25.6095 13.8399 25.6217 14.1741L25.6217 18.781C25.6214 18.916 25.6725 19.0461 25.7646 19.1449C25.8568 19.2436 25.9831 19.3036 26.1178 19.3126L30.7247 19.3126C31.0662 19.3034 31.3907 19.1611 31.629 18.9162C31.8673 18.6713 32.0005 18.343 32.0003 18.0013L32.0003 13.43C32.0006 13.2949 31.9496 13.1648 31.8575 13.0661C31.7653 12.9673 31.639 12.9074 31.5043 12.8984L26.8975 12.8984C26.5701 12.8862 26.257 12.761 26.0115 12.544C25.8942 12.4422 25.7989 12.3172 25.7319 12.177C25.6648 12.0368 25.6273 11.8843 25.6217 11.7289L25.6217 7.01581C25.6217 6.87483 25.5656 6.73958 25.4659 6.6399C25.3662 6.54021 25.2311 6.48416 25.0901 6.48416L20.4832 6.48416C20.1531 6.48508 19.8356 6.35815 19.5972 6.12988C19.3819 5.90798 19.245 5.62171 19.2075 5.31478L19.2075 0.601646C19.2077 0.533401 19.1937 0.465821 19.1666 0.403197C19.1395 0.340572 19.0998 0.284188 19.0499 0.237624C19 0.19106 18.941 0.155355 18.8767 0.132615C18.8123 0.109874 18.744 0.100597 18.6759 0.10547L13.3249 0.10547C13.2098 0.102802 13.0974 0.14023 13.0069 0.211345C12.9164 0.282461 12.8534 0.382898 12.8288 0.495338ZM19.2075 11.6935C19.1653 11.9606 19.0415 12.2082 18.8531 12.4023C18.6147 12.6305 18.2972 12.7576 17.9672 12.7567L14.069 12.7567C13.7428 12.739 13.4315 12.6144 13.1831 12.4023C12.9654 12.1857 12.8387 11.8941 12.8288 11.5872L12.8288 7.51188C12.8365 7.23226 12.9505 6.96613 13.1477 6.76772C13.3912 6.52112 13.7224 6.38091 14.069 6.37786L18.0381 6.37786C18.3429 6.42241 18.6271 6.55838 18.8531 6.76772C19.0814 7.00608 19.2084 7.32363 19.2075 7.65366L19.2075 11.6935Z" fill="#535251"/>
</g>
<defs>
<clipPath id="clip0_3098_24292">
<rect width="32" height="32" fill="white" transform="translate(0 32) rotate(-90)"/>
</clipPath>
</defs>
</svg>
