<svg width="19" height="12" viewBox="0 0 19 12" fill="none" xmlns="http://www.w3.org/2000/svg">
<path d="M4.50033 11.6C4.8317 11.6 5.10033 11.3314 5.10033 11C5.10033 10.6686 4.8317 10.4 4.50033 10.4V11.6ZM1.16699 9.33333H0.566992H1.16699ZM2.83366 1V0.4V1ZM5.49199 1.6C5.82336 1.6 6.09199 1.33137 6.09199 1C6.09199 0.668629 5.82336 0.4 5.49199 0.4V1.6ZM12.0003 0.4C11.669 0.4 11.4003 0.668629 11.4003 1C11.4003 1.33137 11.669 1.6 12.0003 1.6V0.4ZM13.667 1V0.4V1ZM11.0087 10.4C10.6773 10.4 10.4087 10.6686 10.4087 11C10.4087 11.3314 10.6773 11.6 11.0087 11.6V10.4ZM17.2337 7.66667C17.2337 7.99804 17.5023 8.26667 17.8337 8.26667C18.165 8.26667 18.4337 7.99804 18.4337 7.66667H17.2337ZM18.4337 4.33333C18.4337 4.00196 18.165 3.73333 17.8337 3.73333C17.5023 3.73333 17.2337 4.00196 17.2337 4.33333H18.4337ZM6.91776 10.6672C6.73395 10.9429 6.80845 11.3154 7.08417 11.4992C7.35989 11.683 7.73241 11.6085 7.91622 11.3328L6.91776 10.6672ZM10.7503 6L11.2496 6.33282C11.3723 6.14871 11.3837 5.91198 11.2793 5.71689C11.1749 5.52179 10.9716 5.4 10.7503 5.4V6ZM5.75033 6L5.2511 5.66718C5.12835 5.85129 5.11691 6.08802 5.22132 6.28311C5.32573 6.47821 5.52905 6.6 5.75033 6.6V6ZM9.58289 1.33282C9.7667 1.0571 9.6922 0.684581 9.41648 0.50077C9.14076 0.316958 8.76824 0.391463 8.58443 0.66718L9.58289 1.33282ZM4.50033 10.4H2.83366V11.6H4.50033V10.4ZM2.83366 10.4C2.55076 10.4 2.27945 10.2876 2.07941 10.0876L1.23088 10.9361C1.65597 11.3612 2.2325 11.6 2.83366 11.6V10.4ZM2.07941 10.0876C1.87937 9.88754 1.76699 9.61623 1.76699 9.33333H0.566992C0.566992 9.93449 0.805801 10.511 1.23088 10.9361L2.07941 10.0876ZM1.76699 9.33333V2.66667H0.566992V9.33333H1.76699ZM1.76699 2.66667C1.76699 2.38377 1.87937 2.11246 2.07941 1.91242L1.23088 1.06389C0.805801 1.48897 0.566992 2.06551 0.566992 2.66667H1.76699ZM2.07941 1.91242C2.27945 1.71238 2.55076 1.6 2.83366 1.6V0.4C2.2325 0.4 1.65597 0.638809 1.23088 1.06389L2.07941 1.91242ZM2.83366 1.6H5.49199V0.4H2.83366V1.6ZM12.0003 1.6H13.667V0.4H12.0003V1.6ZM13.667 1.6C13.9499 1.6 14.2212 1.71238 14.4212 1.91242L15.2698 1.06389C14.8447 0.638809 14.2682 0.4 13.667 0.4V1.6ZM14.4212 1.91242C14.6213 2.11246 14.7337 2.38377 14.7337 2.66667H15.9337C15.9337 2.06551 15.6948 1.48897 15.2698 1.06389L14.4212 1.91242ZM14.7337 2.66667V9.33333H15.9337V2.66667H14.7337ZM14.7337 9.33333C14.7337 9.61623 14.6213 9.88754 14.4212 10.0876L15.2698 10.9361C15.6948 10.511 15.9337 9.93449 15.9337 9.33333H14.7337ZM14.4212 10.0876C14.2212 10.2876 13.9499 10.4 13.667 10.4V11.6C14.2682 11.6 14.8447 11.3612 15.2698 10.9361L14.4212 10.0876ZM13.667 10.4H11.0087V11.6H13.667V10.4ZM18.4337 7.66667V4.33333H17.2337V7.66667H18.4337ZM7.91622 11.3328L11.2496 6.33282L10.2511 5.66718L6.91776 10.6672L7.91622 11.3328ZM10.7503 5.4H5.75033V6.6H10.7503V5.4ZM6.24956 6.33282L9.58289 1.33282L8.58443 0.66718L5.2511 5.66718L6.24956 6.33282Z" fill="#6B7280"/>
</svg>
