<svg width="21" height="20" viewBox="0 0 21 20" fill="none" xmlns="http://www.w3.org/2000/svg">
<path d="M17.8965 7.91699C19.1465 7.91699 19.1465 8.33366 19.1465 9.16699V10.8337C19.1465 11.667 19.1465 12.0837 17.8965 12.0837" stroke="white" stroke-width="1.46505" stroke-linecap="round" stroke-linejoin="round"/>
<path d="M6.13086 8.33374C6.40586 9.42541 6.40586 10.5754 6.13086 11.6671" stroke="white" stroke-width="1.46505" stroke-linecap="round" stroke-linejoin="round"/>
<path d="M9.04688 8.33374C9.32187 9.42541 9.32187 10.5754 9.04688 11.6671" stroke="white" stroke-width="1.46505" stroke-linecap="round" stroke-linejoin="round"/>
<path d="M11.9629 8.33374C12.2379 9.42541 12.2379 10.5754 11.9629 11.6671" stroke="white" stroke-width="1.46505" stroke-linecap="round" stroke-linejoin="round"/>
<path d="M11.6471 15.8337H6.64714C3.3138 15.8337 2.48047 15.0003 2.48047 11.667V8.33366C2.48047 5.00033 3.3138 4.16699 6.64714 4.16699H11.6471C14.9805 4.16699 15.8138 5.00033 15.8138 8.33366V11.667C15.8138 15.0003 14.9805 15.8337 11.6471 15.8337Z" stroke="white" stroke-width="1.46505" stroke-linecap="round" stroke-linejoin="round"/>
</svg>
