<svg width="20" height="20" viewBox="0 0 20 20" fill="none" xmlns="http://www.w3.org/2000/svg">
<path d="M17.082 7.91675C18.332 7.91675 18.332 8.33341 18.332 9.16675V10.8334C18.332 11.6667 18.332 12.0834 17.082 12.0834" stroke="white" stroke-width="1.5" stroke-linecap="round" stroke-linejoin="round"/>
<path d="M8.33301 6.66675L6.75801 8.75008C6.43301 9.30841 6.83301 10.0001 7.47468 10.0001H9.39134C10.033 10.0001 10.433 10.6917 10.1163 11.2501L8.33301 13.3334" stroke="white" stroke-width="1.5" stroke-linecap="round" stroke-linejoin="round"/>
<path d="M5.83268 15.8334C2.49935 15.8334 1.66602 15.0001 1.66602 11.6667V8.33341C1.66602 5.00008 2.49935 4.16675 5.83268 4.16675" stroke="white" stroke-width="1.5" stroke-linecap="round" stroke-linejoin="round"/>
<path d="M10.832 4.16675C14.1654 4.16675 14.9987 5.00008 14.9987 8.33341V11.6667C14.9987 15.0001 14.1654 15.8334 10.832 15.8334" stroke="white" stroke-width="1.5" stroke-linecap="round" stroke-linejoin="round"/>
</svg>
