<svg width="29" height="29" viewBox="0 0 29 29" fill="none" xmlns="http://www.w3.org/2000/svg">
<path d="M26.5517 22.3046C26.5517 22.7246 26.4584 23.1563 26.2601 23.5763C26.0617 23.9963 25.8051 24.3929 25.4668 24.7663C24.8951 25.3963 24.2651 25.8513 23.5534 26.1429C22.8534 26.4346 22.0951 26.5863 21.2784 26.5863C20.0884 26.5863 18.8168 26.3063 17.4751 25.7346C16.1334 25.1629 14.7918 24.3929 13.4618 23.4246C12.1201 22.4446 10.8484 21.3596 9.63508 20.1579C8.43342 18.9446 7.34842 17.6729 6.38008 16.3429C5.42342 15.0129 4.65342 13.6829 4.09342 12.3646C3.53342 11.0346 3.25342 9.76293 3.25342 8.5496C3.25342 7.75626 3.39342 6.99793 3.67342 6.29793C3.95342 5.58626 4.39675 4.93293 5.01508 4.3496C5.76175 3.6146 6.57842 3.25293 7.44175 3.25293C7.76842 3.25293 8.09508 3.32293 8.38675 3.46293C8.69008 3.60293 8.95842 3.81293 9.16842 4.11626L11.8751 7.93126C12.0851 8.22293 12.2368 8.49126 12.3418 8.74793C12.4468 8.99293 12.5051 9.23793 12.5051 9.4596C12.5051 9.7396 12.4234 10.0196 12.2601 10.2879C12.1084 10.5563 11.8868 10.8363 11.6068 11.1163L10.7201 12.0379C10.5918 12.1663 10.5334 12.3179 10.5334 12.5046C10.5334 12.5979 10.5451 12.6796 10.5684 12.7729C10.6034 12.8663 10.6384 12.9363 10.6618 13.0063C10.8718 13.3913 11.2334 13.8929 11.7468 14.4996C12.2718 15.1063 12.8318 15.7246 13.4384 16.3429C14.0684 16.9613 14.6751 17.5329 15.2934 18.0579C15.9001 18.5713 16.4018 18.9213 16.7984 19.1313C16.8568 19.1546 16.9268 19.1896 17.0084 19.2246C17.1018 19.2596 17.1951 19.2713 17.3001 19.2713C17.4984 19.2713 17.6501 19.2013 17.7784 19.0729L18.6651 18.1979C18.9568 17.9063 19.2368 17.6846 19.5051 17.5446C19.7734 17.3813 20.0418 17.2996 20.3334 17.2996C20.5551 17.2996 20.7884 17.3463 21.0451 17.4513C21.3018 17.5563 21.5701 17.7079 21.8618 17.9063L25.7234 20.6479C26.0268 20.8579 26.2367 21.1029 26.3651 21.3946C26.4817 21.6863 26.5517 21.9779 26.5517 22.3046Z" stroke="#07F668" stroke-width="1.755" stroke-miterlimit="10"/>
<path d="M22.5033 11.4202C22.5033 10.7202 21.9549 9.64691 21.1383 8.77191C20.3916 7.96691 19.3999 7.33691 18.4199 7.33691" stroke="#07F668" stroke-width="1.755" stroke-linecap="round" stroke-linejoin="round"/>
<path d="M26.5866 11.4196C26.5866 6.9046 22.9349 3.25293 18.4199 3.25293" stroke="#07F668" stroke-width="1.755" stroke-linecap="round" stroke-linejoin="round"/>
</svg>
