<svg width="20" height="20" viewBox="0 0 20 20" fill="none" xmlns="http://www.w3.org/2000/svg">
<path fill-rule="evenodd" clip-rule="evenodd" d="M18.5 9.625C18.4375 9.1875 18.25 8.75 17.9375 8.4375C17.75 8.25 17.75 8 17.875 7.75C18.125 7.375 18.125 6.875 17.875 6.5625C17.5625 6.0625 16.875 5.8125 16.3125 5.8125C16.1875 5.8125 16.0625 5.8125 16 5.8125C15.75 5.6875 15.6875 5.5 15.5625 5.375C15.125 4.875 14.6875 4.25 14 3.875C13.5625 3.75 13 3.75 12.5625 3.75C10.9375 3.75 9.375 3.75 7.75 3.75C7.0625 3.75 6.3125 3.75 5.75 4.0625C5.1875 4.375 4.75 5 4.4375 5.4375C4.3125 5.625 4.25 5.75 4.125 5.75C4 5.875 3.8125 5.875 3.6875 5.875C3 5.875 2.5 6.1875 2.125 6.625C1.875 6.9375 1.875 7.5 2.125 7.875C2.25 8.0625 2.25 8.375 2.0625 8.5625C1.75 8.9375 1.5625 9.3125 1.4375 9.75C1.3125 10.375 1.3125 11 1.25 11.625V11.6875C1.25 12.625 1.25 13.5625 1.375 14.5C1.5 15.25 1.6875 16 2.5625 16.1875C3.3125 16.375 4.1875 16.3125 4.875 15.75C5 15.625 5 15.625 5.125 15.5C5.25 15.5 5.375 15.5 5.4375 15.5C8.5 15.5 11.625 15.5 14.6875 15.5C14.8125 15.5 14.8125 15.5 14.9375 15.5C15.0625 15.5 15.0625 15.625 15.1875 15.6875C15.4375 16 15.875 16 16.3125 16.125C16.875 16.25 17.4375 16.25 17.9375 15.9375C18.5 15.625 18.625 15 18.6875 14.375C18.8125 13.625 18.8125 12.875 18.8125 12.1875C18.8125 12 18.8125 11.75 18.8125 11.5625C18.75 10.875 18.75 10.25 18.5 9.625ZM17.8125 12.125C17.8125 12.875 17.8125 13.5 17.6875 14.1875C17.625 14.5625 17.5625 15 17.375 15.0625C17.1875 15.1875 17 15.1875 16.8125 15.1875C16.6875 15.1875 16.5625 15.1875 16.375 15.125C16.3125 15.125 16.1875 15.0625 16.0625 15.0625C16 15.0625 15.875 15 15.8125 15C15.5 14.5625 15.1875 14.5 14.9375 14.5H4.75L4.25 15C3.9375 15.25 3.5625 15.3125 3.3125 15.3125C3.125 15.3125 3 15.3125 2.8125 15.25C2.625 15.1875 2.375 15.125 2.3125 14.3125C2.1875 13.5 2.1875 12.625 2.1875 11.6875C2.25 11.375 2.25 11.0625 2.3125 10.75C2.3125 10.4375 2.375 10.1875 2.4375 9.875C2.5 9.5 2.6875 9.1875 3.0625 8.875L3.5 8.5C3.8125 8.25 3.8125 7.75 3.4375 7.5625L2.9375 7.25C2.875 7.25 2.875 7.0625 2.875 7.0625C3.0625 6.875 3.3125 6.75 3.6875 6.75C3.8125 6.75 4.1875 6.75 4.5 6.5625C4.75 6.5 5 6.3125 5.25 5.875L5.3125 5.75C5.5625 5.375 5.9375 5 6.25 4.8125C6.5625 4.625 7.25 4.625 7.75 4.625H12.5625C12.9375 4.625 13.3125 4.625 13.5625 4.75C13.9375 4.9375 14.25 5.3125 14.5625 5.75L14.8125 6.0625L14.875 6.125C15 6.3125 15.1875 6.5625 15.5625 6.6875L15.75 6.75H16.3125C16.625 6.75 16.9375 6.875 17.0625 7.0625V7.125V7.1875C17.0625 7.1875 17.0625 7.25 17 7.25L16.5625 7.5C16.1875 7.6875 16.1875 8.1875 16.5 8.4375L16.9375 8.8125C17.3125 9.0625 17.5 9.4375 17.5625 9.8125V9.875V9.9375C17.75 10.4375 17.75 10.9375 17.75 11.5V12.125H17.8125Z" fill="#374151"/>
<path d="M12.7504 7.31251C12.6879 7.25001 12.6879 7.31251 12.6254 7.31251C12.5004 7.37501 12.3754 7.43751 12.2504 7.50001C12.1254 7.56251 12.0629 7.62501 12.0004 7.68751C11.6254 8.25001 11.1879 8.81251 10.8129 9.31251C10.6254 9.56251 10.4379 9.87501 10.1879 10.125C9.93793 10.375 9.93793 10.375 9.75043 10.125C9.25043 9.56251 8.81293 8.87501 8.37543 8.25001C8.12543 7.87501 7.87543 7.43751 7.37543 7.37501C7.31293 7.31251 7.31293 7.31251 7.25043 7.31251C7.18793 7.37501 7.25043 7.43751 7.25043 7.50001C7.50043 8.06251 7.75043 8.68751 8.00043 9.25001C8.37543 10.125 8.75043 11 9.25043 11.875C9.37543 12.125 9.56293 12.375 9.75043 12.5625C9.93793 12.75 10.0629 12.75 10.2504 12.5625C10.3754 12.4375 10.4379 12.3125 10.5629 12.1875C11.0004 11.5 11.3754 10.75 11.7504 10C12.1254 9.18751 12.5004 8.31251 12.8754 7.50001C12.8129 7.43751 12.8129 7.37501 12.7504 7.31251ZM12.0004 8.62501C11.5629 9.43751 11.1254 10.3125 10.6879 11.125C10.5004 11.4375 10.3129 11.75 10.1254 12.0625C10.0629 12.1875 10.0004 12.125 9.87543 12.0625C9.75043 11.9375 9.68793 11.8125 9.62543 11.6875C9.25043 11.0625 8.93793 10.4375 8.62543 9.81251C8.25043 9.06251 7.87543 8.25001 7.37543 7.50001V7.43751C7.37543 7.56251 7.50043 7.56251 7.56293 7.62501C7.75043 7.68751 7.87543 7.81251 8.00043 7.93751C8.37543 8.50001 8.75043 9.00001 9.06293 9.56251C9.25043 9.81251 9.43793 10.0625 9.62543 10.3125C9.93793 10.625 10.0004 10.625 10.3129 10.3125C10.8754 9.62501 11.3129 8.93751 11.8129 8.18751C11.8754 8.06251 12.0004 7.93751 12.0629 7.81251H12.1254C12.2504 7.68751 12.4379 7.62501 12.6254 7.56251C12.5629 7.62501 12.5629 7.68751 12.5004 7.75001C12.3129 8.00001 12.1254 8.31251 12.0004 8.62501Z" fill="#374151"/>
<path d="M12.125 7.875C11.75 8.5 11.3125 9.125 10.9375 9.75C10.6875 10.125 10.5 10.5 10.1875 10.875C10.0625 11 10 11 9.875 10.875C9.5625 10.5625 9.375 10.1875 9.125 9.8125C8.75 9.125 8.3125 8.5 7.9375 7.8125C7.875 7.6875 7.8125 7.625 7.6875 7.5625C7.6875 7.625 7.6875 7.6875 7.75 7.6875C8.0625 8.1875 8.3125 8.75 8.625 9.25C9 9.875 9.3125 10.5 9.75 11.125C10 11.5 10.0625 11.5 10.375 11.125C10.8125 10.5625 11.0625 9.9375 11.4375 9.375C11.6875 9.0625 11.8125 8.6875 12 8.3125C12.125 8.0625 12.25 7.8125 12.4375 7.5625C12.25 7.6875 12.1875 7.8125 12.125 7.875Z" fill="#374151"/>
<path fill-rule="evenodd" clip-rule="evenodd" d="M8.375 12.6875C8.375 12.875 8.25 13 8.0625 12.8125C7.9375 12.6875 7.9375 12.625 7.875 12.5625C7.75 12.25 7.6875 12 7.375 11.8125C7.0625 11.5625 6.5625 11.5625 6.1875 11.4375C5.875 11.25 5.625 11.125 5.3125 11.0625C5.1875 11 5 11 4.9375 11C4.8125 11 4.75 11.0625 4.625 11.0625C4.4375 11.1875 4.125 11.0625 3.9375 11C3.625 10.875 3.4375 10.6875 3.25 10.4375C3.125 10.3125 3.0625 10.125 2.9375 9.93749C2.9375 9.74999 3.0625 9.56249 3.125 9.43749C3.3125 9.31249 3.625 9.43749 3.8125 9.62499C4.8125 10.1875 5.875 10.3125 7 10.5625C7.3125 10.6875 7.625 10.75 7.8125 10.9375C8 11.125 8.125 11.3125 8.125 11.5C8.25 11.8125 8.3125 12.0625 8.3125 12.4375C8.4375 12.5 8.4375 12.5625 8.375 12.6875Z" fill="#374151"/>
<path fill-rule="evenodd" clip-rule="evenodd" d="M11.7492 12.6875C11.7492 12.875 11.8742 13 12.0617 12.8125C12.1867 12.6875 12.1867 12.625 12.2492 12.5625C12.3742 12.25 12.4367 12 12.7492 11.8125C13.0617 11.5625 13.5617 11.5625 13.9367 11.4375C14.2492 11.3125 14.4992 11.25 14.8117 11.125C14.9367 11.0625 15.1242 11.0625 15.1867 11.0625C15.3117 11.0625 15.3742 11.125 15.4992 11.125C15.6867 11.25 15.9992 11.125 16.1867 11.0625C16.4992 10.9375 16.6867 10.75 16.8742 10.5C16.9992 10.375 17.0617 10.1875 17.1867 9.99999C17.1867 9.81249 17.0617 9.62499 16.9992 9.49999C16.8117 9.37499 16.4992 9.49999 16.3117 9.68749C15.3117 10.25 14.2492 10.375 13.1242 10.625C12.8117 10.75 12.4992 10.8125 12.3117 11C12.1242 11.1875 11.9992 11.375 11.9992 11.5625C11.8742 11.875 11.8117 12.125 11.8117 12.5C11.6242 12.5 11.6242 12.5625 11.7492 12.6875Z" fill="#374151"/>
</svg>
