<svg width="20" height="20" viewBox="0 0 20 20" fill="none" xmlns="http://www.w3.org/2000/svg">
<path fill-rule="evenodd" clip-rule="evenodd" d="M18.502 9.625C18.4395 9.1875 18.252 8.75 17.9395 8.4375C17.752 8.25 17.752 8 17.877 7.75C18.127 7.375 18.127 6.875 17.877 6.5625C17.5645 6.0625 16.877 5.8125 16.3145 5.8125C16.1895 5.8125 16.0645 5.8125 16.002 5.8125C15.752 5.6875 15.6895 5.5 15.5645 5.375C15.127 4.875 14.6895 4.25 14.002 3.875C13.5645 3.75 13.002 3.75 12.5645 3.75C10.9395 3.75 9.37695 3.75 7.75195 3.75C7.06445 3.75 6.31445 3.75 5.75195 4.0625C5.18945 4.375 4.75195 5 4.43945 5.4375C4.31445 5.625 4.25195 5.75 4.12695 5.75C4.00195 5.875 3.81445 5.875 3.68945 5.875C3.00195 5.875 2.50195 6.1875 2.12695 6.625C1.87695 6.9375 1.87695 7.5 2.12695 7.875C2.25195 8.0625 2.25195 8.375 2.06445 8.5625C1.75195 8.9375 1.56445 9.3125 1.43945 9.75C1.31445 10.375 1.31445 11 1.25195 11.625V11.6875C1.25195 12.625 1.25195 13.5625 1.37695 14.5C1.50195 15.25 1.68945 16 2.56445 16.1875C3.31445 16.375 4.18945 16.3125 4.87695 15.75C5.00195 15.625 5.00195 15.625 5.12695 15.5C5.25195 15.5 5.37695 15.5 5.43945 15.5C8.50195 15.5 11.627 15.5 14.6895 15.5C14.8145 15.5 14.8145 15.5 14.9395 15.5C15.0645 15.5 15.0645 15.625 15.1895 15.6875C15.4395 16 15.877 16 16.3145 16.125C16.877 16.25 17.4395 16.25 17.9395 15.9375C18.502 15.625 18.627 15 18.6895 14.375C18.8145 13.625 18.8145 12.875 18.8145 12.1875C18.8145 12 18.8145 11.75 18.8145 11.5625C18.752 10.875 18.752 10.25 18.502 9.625ZM17.8145 12.125C17.8145 12.875 17.8145 13.5 17.6895 14.1875C17.627 14.5625 17.5645 15 17.377 15.0625C17.1895 15.1875 17.002 15.1875 16.8145 15.1875C16.6895 15.1875 16.5645 15.1875 16.377 15.125C16.3145 15.125 16.1895 15.0625 16.0645 15.0625C16.002 15.0625 15.877 15 15.8145 15C15.502 14.5625 15.1895 14.5 14.9395 14.5H4.75195L4.25195 15C3.93945 15.25 3.56445 15.3125 3.31445 15.3125C3.12695 15.3125 3.00195 15.3125 2.81445 15.25C2.62695 15.1875 2.37695 15.125 2.31445 14.3125C2.18945 13.5 2.18945 12.625 2.18945 11.6875C2.25195 11.375 2.25195 11.0625 2.31445 10.75C2.31445 10.4375 2.37695 10.1875 2.43945 9.875C2.50195 9.5 2.68945 9.1875 3.06445 8.875L3.50195 8.5C3.81445 8.25 3.81445 7.75 3.43945 7.5625L2.93945 7.25C2.87695 7.25 2.87695 7.0625 2.87695 7.0625C3.06445 6.875 3.31445 6.75 3.68945 6.75C3.81445 6.75 4.18945 6.75 4.50195 6.5625C4.75195 6.5 5.00195 6.3125 5.25195 5.875L5.31445 5.75C5.56445 5.375 5.93945 5 6.25195 4.8125C6.56445 4.625 7.25195 4.625 7.75195 4.625H12.5645C12.9395 4.625 13.3145 4.625 13.5645 4.75C13.9395 4.9375 14.252 5.3125 14.5645 5.75L14.8145 6.0625L14.877 6.125C15.002 6.3125 15.1895 6.5625 15.5645 6.6875L15.752 6.75H16.3145C16.627 6.75 16.9395 6.875 17.0645 7.0625V7.125V7.1875C17.0645 7.1875 17.0645 7.25 17.002 7.25L16.5645 7.5C16.1895 7.6875 16.1895 8.1875 16.502 8.4375L16.9395 8.8125C17.3145 9.0625 17.502 9.4375 17.5645 9.8125V9.875V9.9375C17.752 10.4375 17.752 10.9375 17.752 11.5V12.125H17.8145Z" fill="white" stroke="white" stroke-width="0.3"/>
<path d="M12.9612 6.67226C12.8939 6.60493 12.8939 6.67226 12.8265 6.67226C12.6919 6.73959 12.5572 6.80693 12.4225 6.87426C12.2879 6.9416 12.2205 7.00893 12.1532 7.07627C11.7492 7.68227 11.2778 8.28828 10.8738 8.82695C10.6718 9.09629 10.4698 9.43296 10.2005 9.7023C9.93116 9.97164 9.93116 9.97164 9.72915 9.7023C9.19048 9.09629 8.71914 8.35562 8.2478 7.68227C7.97846 7.27827 7.70913 6.80693 7.17045 6.73959C7.10312 6.67226 7.10312 6.67226 7.03579 6.67226C6.96845 6.73959 7.03579 6.80693 7.03579 6.87426C7.30512 7.48027 7.57446 8.15361 7.8438 8.75962C8.2478 9.7023 8.65181 10.645 9.19048 11.5877C9.32515 11.857 9.52715 12.1263 9.72915 12.3283C9.93116 12.5303 10.0658 12.5303 10.2678 12.3283C10.4025 12.1937 10.4698 12.059 10.6045 11.9243C11.0758 11.1837 11.4798 10.3756 11.8838 9.56763C12.2879 8.69229 12.6919 7.74961 13.0959 6.87426C13.0285 6.80693 13.0285 6.73959 12.9612 6.67226ZM12.1532 8.08628C11.6818 8.96162 11.2105 9.9043 10.7392 10.7796C10.5372 11.1163 10.3352 11.453 10.1332 11.7897C10.0658 11.9243 9.99849 11.857 9.86382 11.7897C9.72915 11.655 9.66182 11.5203 9.59448 11.3857C9.19048 10.7123 8.85381 10.039 8.51714 9.36563C8.11313 8.55762 7.70913 7.68227 7.17045 6.87426V6.80693C7.17045 6.9416 7.30512 6.9416 7.37246 7.00893C7.57446 7.07627 7.70913 7.21093 7.8438 7.3456C8.2478 7.95161 8.65181 8.49028 8.98848 9.09629C9.19048 9.36563 9.39248 9.63496 9.59448 9.9043C9.93116 10.241 9.99849 10.241 10.3352 9.9043C10.9412 9.16363 11.4125 8.42295 11.9512 7.61494C12.0185 7.48027 12.1532 7.3456 12.2205 7.21093H12.2879C12.4225 7.07627 12.6245 7.00893 12.8265 6.9416C12.7592 7.00893 12.7592 7.07627 12.6919 7.1436C12.4899 7.41294 12.2879 7.74961 12.1532 8.08628Z" fill="white"/>
<path d="M12.2866 7.27857C11.8826 7.95191 11.4112 8.62525 11.0072 9.29859C10.7379 9.7026 10.5359 10.1066 10.1992 10.5106C10.0646 10.6453 9.99722 10.6453 9.86256 10.5106C9.52589 10.1739 9.32388 9.76993 9.05455 9.36592C8.65054 8.62525 8.1792 7.95191 7.7752 7.21123C7.70786 7.07656 7.64053 7.00923 7.50586 6.94189C7.50586 7.00923 7.50586 7.07656 7.57319 7.07656C7.90986 7.61524 8.1792 8.22124 8.51587 8.75992C8.91988 9.43326 9.25655 10.1066 9.72789 10.7799C9.99722 11.1839 10.0646 11.1839 10.4012 10.7799C10.8726 10.1739 11.1419 9.50059 11.5459 8.89459C11.8152 8.55791 11.9499 8.15391 12.1519 7.7499C12.2866 7.48057 12.4213 7.21123 12.6233 6.94189C12.4213 7.07656 12.3539 7.21123 12.2866 7.27857Z" fill="white"/>
<path fill-rule="evenodd" clip-rule="evenodd" d="M8.59144 13.2935C8.59144 13.4712 8.47736 13.5896 8.30624 13.412C8.19215 13.2935 8.19216 13.2343 8.13511 13.1751C8.02103 12.879 7.96399 12.6421 7.67879 12.4645C7.39359 12.2276 6.93726 12.2276 6.59502 12.1092C6.30981 11.9315 6.08165 11.8131 5.79645 11.7538C5.68237 11.6946 5.51125 11.6946 5.45421 11.6946C5.34012 11.6946 5.28308 11.7538 5.169 11.7538C4.99788 11.8723 4.71268 11.7538 4.54156 11.6946C4.25635 11.5762 4.08523 11.3985 3.91411 11.1617C3.80003 11.0432 3.74299 10.8656 3.62891 10.6879C3.62891 10.5103 3.74299 10.3326 3.80003 10.2142C3.97115 10.0957 4.25635 10.2142 4.42747 10.3918C5.34012 10.9248 6.30981 11.0432 7.33655 11.2801C7.62175 11.3985 7.90695 11.4578 8.07807 11.6354C8.2492 11.8131 8.36328 11.9907 8.36328 12.1684C8.47736 12.4645 8.5344 12.7013 8.5344 13.0566C8.64848 13.1159 8.64848 13.1751 8.59144 13.2935Z" fill="white"/>
<path fill-rule="evenodd" clip-rule="evenodd" d="M11.2209 13.2898C11.2209 13.4707 11.3529 13.5912 11.5509 13.4104C11.6828 13.2898 11.6828 13.2295 11.7488 13.1692C11.8808 12.8678 11.9468 12.6266 12.2768 12.4457C12.6067 12.2046 13.1347 12.2046 13.5306 12.084C13.8606 11.9634 14.1246 11.9031 14.4545 11.7826C14.5865 11.7223 14.7845 11.7223 14.8505 11.7223C14.9825 11.7223 15.0485 11.7826 15.1804 11.7826C15.3784 11.9031 15.7084 11.7826 15.9064 11.7223C16.2363 11.6017 16.4343 11.4208 16.6323 11.1797C16.7643 11.0591 16.8303 10.8782 16.9622 10.6974C16.9622 10.5165 16.8303 10.3356 16.7643 10.215C16.5663 10.0945 16.2363 10.215 16.0383 10.3959C14.9825 10.9385 13.8606 11.0591 12.6727 11.3002C12.3428 11.4208 12.0128 11.4811 11.8148 11.662C11.6168 11.8428 11.4849 12.0237 11.4849 12.2046C11.3529 12.506 11.2869 12.7472 11.2869 13.1089C11.0889 13.1089 11.0889 13.1692 11.2209 13.2898Z" fill="white"/>
</svg>
