<svg width="20" height="21" viewBox="0 0 20 21" fill="none" xmlns="http://www.w3.org/2000/svg">
<path d="M1.45 10.12C1.45 5.39602 5.27603 1.57 10 1.57C14.724 1.57 18.55 5.39602 18.55 10.12C18.55 14.844 14.724 18.67 10 18.67C5.27603 18.67 1.45 14.844 1.45 10.12Z" stroke="#6B7280" stroke-width="0.9"/>
<path d="M16.8852 10.4125V10.4575C16.7502 13.3825 14.7927 15.9025 12.0027 16.7125M16.8852 10.4125L11.6877 16.645C11.7327 16.69 11.7777 16.735 11.8452 16.735H11.8677H11.8902H11.9127C11.9352 16.735 11.9802 16.735 12.0027 16.7125M16.8852 10.4125H16.9352C16.9352 10.4135 16.9351 10.4141 16.9351 10.4141C16.9351 10.4141 16.9353 10.4131 16.936 10.4106C16.9362 10.4102 16.9364 10.4095 16.9367 10.4086C16.938 10.4047 16.9406 10.3967 16.9421 10.3909C16.9444 10.3818 16.9467 10.3683 16.9438 10.3527C16.9417 10.3417 16.9374 10.3315 16.9312 10.3225C16.9263 10.3092 16.9176 10.2995 16.9101 10.2932C16.9033 10.2876 16.8956 10.2832 16.8902 10.2804V10.2793L16.8755 10.2647C16.8706 10.2597 16.868 10.2551 16.8624 10.2439L16.8619 10.2429C16.8562 10.2316 16.8475 10.2142 16.8305 10.1972L16.8248 10.1914L16.8175 10.1878C16.8041 10.1811 16.7943 10.1752 16.783 10.1684C16.7765 10.1645 16.7694 10.1602 16.7609 10.1554C16.7389 10.1428 16.7133 10.13 16.676 10.1176L16.6703 10.1157C16.6669 10.1124 16.6613 10.1074 16.6542 10.1032C16.6431 10.0965 16.63 10.0925 16.6152 10.0925C16.6003 10.0925 16.5872 10.0965 16.5761 10.1032C16.5695 10.1071 16.5642 10.1118 16.5607 10.115H16.5607H16.5605H16.5604H16.5603H16.5601H16.56H16.5599H16.5597H16.5596H16.5595H16.5593H16.5592H16.5591H16.5589H16.5588H16.5587H16.5586H16.5584H16.5583H16.5582H16.558H16.5579H16.5578H16.5576H16.5575H16.5574H16.5572H16.5571H16.557H16.5568H16.5567H16.5566H16.5564H16.5563H16.5562H16.556H16.5559H16.5558H16.5557H16.5555H16.5554H16.5553H16.5551H16.555H16.5549H16.5547H16.5546H16.5545H16.5543H16.5542H16.5541H16.5539H16.5538H16.5537H16.5535H16.5534H16.5533H16.5531H16.553H16.5529H16.5528H16.5526H16.5525H16.5524H16.5522H16.5521H16.552H16.5518H16.5517H16.5516H16.5514H16.5513H16.5512H16.551H16.5509H16.5508H16.5506H16.5505H16.5504H16.5502H16.5501H16.55H16.5499H16.5497H16.5496H16.5495H16.5493H16.5492H16.5491H16.5489H16.5488H16.5487H16.5485H16.5484H16.5483H16.5481H16.548H16.5479H16.5477H16.5476H16.5475H16.5473H16.5472H16.5471H16.547H16.5468H16.5467H16.5466H16.5464H16.5463H16.5462H16.546H16.5459H16.5458H16.5456H16.5455H16.5454H16.5452H16.5451H16.545H16.5448H16.5447H16.5446H16.5444H16.5443H16.5442H16.5441H16.5439H16.5438H16.5437H16.5435H16.5434H16.5433H16.5431H16.543H16.5429H16.5427H16.5426H16.5425H16.5423H16.5422H16.5421H16.5419H16.5418H16.5417H16.5415H16.5414H16.5413H16.5412H16.541H16.5409H16.5408H16.5406H16.5405H16.5404H16.5402H16.5401H16.54H16.5398H16.5397H16.5396H16.5394H16.5393H16.5392H16.539H16.5389H16.5388H16.5386H16.5385H16.5384H16.5383H16.5381H16.538H16.5379H16.5377H16.5376H16.5375H16.5373H16.5372H16.5371H16.5369H16.5368H16.5367H16.5365H16.5364H16.5363H16.5361H16.536H16.5359H16.5357H16.5356H16.5355H16.5354H16.5352H16.5351H16.535H16.5348H16.5347H16.5346H16.5344H16.5343H16.5342H16.534H16.5339H16.5338H16.5336H16.5335H16.5334H16.5332H16.5331H16.533H16.5328H16.5327H16.5326H16.5325H16.5323H16.5322H16.5321H16.5319H16.5318H16.5317H16.5315H16.5314H16.5313H16.5311H16.531H16.5309H16.5307H16.5306H16.5305H16.5303H16.5302H16.5301H16.5299H16.5298H16.5297H16.5296H16.5294H16.5293H16.5292H16.529H16.5289H16.5288H16.5286H16.5285H16.5284H16.5282H16.5281H16.528H16.5278H16.5277H16.5276H16.5274H16.5273H16.5272H16.527H16.5269H16.5268H16.5267H16.5265H16.5264H16.5263H16.5261H16.526H16.5259H16.5257H16.5256H16.5255H16.5253H16.5252H16.5251H16.5249H16.5248H16.5247H16.5245H16.5244H16.5243H16.5241H16.524H16.5239H16.5238H16.5236H16.5235H16.5234H16.5232H16.5231H16.523H16.5228H16.5227H16.5226H16.5224H16.5223H16.5222H16.522H16.5219H16.5218H16.5216H16.5215H16.5214H16.5212H16.5211H16.521H16.5209H16.5207H16.5206H16.5205H16.5203H16.5202H16.5201H16.5199H16.5198H16.5197H16.5195H16.5194H16.5193H16.5191H16.519H16.5189H16.5187H16.5186H16.5185H16.5183H16.5182H16.5181H16.5179H16.5178H16.5177H16.5176H16.5174H16.5173H16.5172H16.517H16.5169H16.5168H16.5166H16.5165H16.5164H16.5162H16.5161H16.516H16.5158H16.5157H16.5156H16.5154H16.5153H16.5152H16.515H16.5149H16.5148H16.5147H16.5145H16.5144H16.5143H16.5141H16.514H16.5139H16.5137H16.5136H16.5135H16.5133H16.5132H16.5131H16.5129H16.5128H16.5127H16.5125H16.5124H16.5123H16.5121H16.512H16.5119H16.5118H16.5116H16.5115H16.5114H16.5112H16.5111H16.511H16.5108H16.5107H16.5106H16.5104H16.5103H16.5102H16.51H16.5099H16.5098H16.5096H16.5095H16.5094H16.5092H16.5091H16.509H16.5089H16.5087H16.5086H16.5085H16.5083H16.5082H16.5081H16.5079H16.5078H16.5077H16.5075H16.5074H16.5073H16.5071H16.507H16.5069H16.5067H16.5066H16.5065H16.5063H16.5062H16.5061H16.506H16.5058H16.5057H16.5056H16.5054H16.5053H16.5052H16.505H16.5049H16.5048H16.5046H16.5045H16.5044H16.5042H16.5041H16.504H16.5038H16.5037H16.5036H16.5034H16.5033H16.5032H16.5031H16.5029H16.5028H16.5027H16.4938L16.4854 10.1181C13.7674 11.1147 11.8877 13.5383 11.548 16.4142L11.5477 16.4141V16.42C11.5477 16.4349 11.5516 16.448 11.5583 16.4591C11.5613 16.4642 11.5648 16.4685 11.5677 16.4718M16.8852 10.4125L11.5677 16.4718M12.0027 16.7125L12.0166 16.7605C12.02 16.7596 12.0234 16.7586 12.0267 16.7576M12.0027 16.7125L12.038 16.7479C12.0344 16.7515 12.0306 16.7547 12.0267 16.7576M12.0267 16.7576C12.0064 16.7726 11.9829 16.7787 11.9659 16.7815C11.9449 16.785 11.9246 16.785 11.9134 16.785H11.9127H11.9125H11.9124H11.9123H11.9121H11.912H11.9119H11.9117H11.9116H11.9115H11.9114H11.9112H11.9111H11.911H11.9109H11.9107H11.9106H11.9105H11.9104H11.9102H11.9101H11.91H11.9099H11.9098H11.9096H11.9095H11.9094H11.9093H11.9092H11.909H11.9089H11.9088H11.9087H11.9086H11.9085H11.9084H11.9082H11.9081H11.908H11.9079H11.9078H11.9077H11.9076H11.9075H11.9073H11.9072H11.9071H11.907H11.9069H11.9068H11.9067H11.9066H11.9065H11.9064H11.9063H11.9062H11.9061H11.9059H11.9058H11.9057H11.9056H11.9055H11.9054H11.9053H11.9052H11.9051H11.905H11.9049H11.9048H11.9047H11.9046H11.9045H11.9044H11.9043H11.9042H11.9041H11.9041H11.904H11.9039H11.9038H11.9037H11.9036H11.9035H11.9034H11.9033H11.9032H11.9031H11.903H11.9029H11.9028H11.9028H11.9027H11.9026H11.9025H11.9024H11.9023H11.9022H11.9021H11.9021H11.902H11.9019H11.9018H11.9017H11.9016H11.9015H11.9015H11.9014H11.9013H11.9012H11.9011H11.901H11.901H11.9009H11.9008H11.9007H11.9006H11.9006H11.9005H11.9004H11.9003H11.9003H11.9002H11.9001H11.9H11.8999H11.8999H11.8998H11.8997H11.8996H11.8996H11.8995H11.8994H11.8994H11.8993H11.8992H11.8991H11.8991H11.899H11.8989H11.8989H11.8988H11.8987H11.8986H11.8986H11.8985H11.8984H11.8984H11.8983H11.8982H11.8982H11.8981H11.898H11.898H11.8979H11.8978H11.8978H11.8977H11.8977H11.8976H11.8975H11.8975H11.8974H11.8973H11.8973H11.8972H11.8972H11.8971H11.897H11.897H11.8969H11.8969H11.8968H11.8967H11.8967H11.8966H11.8966H11.8965H11.8965H11.8964H11.8963H11.8963H11.8962H11.8962H11.8961H11.8961H11.896H11.896H11.8959H11.8959H11.8958H11.8958H11.8957H11.8956H11.8956H11.8955H11.8955H11.8954H11.8954H11.8953H11.8953H11.8952H11.8952H11.8952H11.8951H11.8951H11.895H11.895H11.8949H11.8949H11.8948H11.8948H11.8947H11.8947H11.8946H11.8946H11.8945H11.8945H11.8945H11.8944H11.8944H11.8943H11.8943H11.8942H11.8942H11.8942H11.8941H11.8941H11.894H11.894H11.894H11.8939H11.8939H11.8938H11.8938H11.8938H11.8937H11.8937H11.8936H11.8936H11.8936H11.8935H11.8935H11.8935H11.8934H11.8934H11.8933H11.8933H11.8933H11.8932H11.8932H11.8932H11.8931H11.8931H11.8931H11.893H11.893H11.893H11.8929H11.8929H11.8929H11.8928H11.8928H11.8928H11.8927H11.8927H11.8927H11.8927H11.8926H11.8926H11.8926H11.8925H11.8925H11.8925H11.8924H11.8924H11.8924H11.8924H11.8923H11.8923H11.8923H11.8923H11.8922H11.8922H11.8922H11.8921H11.8921H11.8921H11.8921H11.892H11.892H11.892H11.892H11.8919H11.8919H11.8919H11.8919H11.8918H11.8918H11.8918H11.8918H11.8918H11.8917H11.8917H11.8917H11.8917H11.8916H11.8916H11.8916H11.8916H11.8916H11.8915H11.8915H11.8915H11.8915H11.8915H11.8914H11.8914H11.8914H11.8914H11.8914H11.8913H11.8913H11.8913H11.8913H11.8913H11.8913H11.8912H11.8912H11.8912H11.8912H11.8912H11.8912H11.8911H11.8911H11.8911H11.8911H11.8911H11.8911H11.891H11.891H11.891H11.891H11.891H11.891H11.891H11.8909H11.8909H11.8909H11.8909H11.8909H11.8909H11.8909H11.8908H11.8908H11.8908H11.8908H11.8908H11.8908H11.8908H11.8908H11.8907H11.8907H11.8907H11.8907H11.8907H11.8907H11.8907H11.8907H11.8907H11.8906H11.8906H11.8906H11.8906H11.8906H11.8906H11.8906H11.8906H11.8906H11.8906H11.8906H11.8905H11.8905H11.8905H11.8905H11.8905H11.8905H11.8905H11.8905H11.8905H11.8905H11.8905H11.8905H11.8904H11.8904H11.8904H11.8904H11.8904H11.8904H11.8904H11.8904H11.8904H11.8904H11.8904H11.8904H11.8904H11.8904H11.8904H11.8904H11.8903H11.8903H11.8903H11.8903H11.8903H11.8903H11.8903H11.8903H11.8903H11.8903H11.8903H11.8903H11.8903H11.8903H11.8903H11.8903H11.8903H11.8903H11.8903H11.8903H11.8903H11.8902H11.8902H11.8902H11.8902H11.8902H11.8902H11.8902H11.8902H11.8902H11.8902H11.8902H11.8902H11.8902H11.8902H11.8902H11.8902H11.8902H11.8902H11.8902H11.8902H11.89H11.8899H11.8898H11.8896H11.8895H11.8894H11.8892H11.8891H11.889H11.8889H11.8887H11.8886H11.8885H11.8884H11.8882H11.8881H11.888H11.8879H11.8877H11.8876H11.8875H11.8874H11.8873H11.8871H11.887H11.8869H11.8868H11.8867H11.8865H11.8864H11.8863H11.8862H11.8861H11.886H11.8859H11.8857H11.8856H11.8855H11.8854H11.8853H11.8852H11.8851H11.885H11.8848H11.8847H11.8846H11.8845H11.8844H11.8843H11.8842H11.8841H11.884H11.8839H11.8838H11.8837H11.8836H11.8834H11.8833H11.8832H11.8831H11.883H11.8829H11.8828H11.8827H11.8826H11.8825H11.8824H11.8823H11.8822H11.8821H11.882H11.8819H11.8818H11.8817H11.8816H11.8816H11.8815H11.8814H11.8813H11.8812H11.8811H11.881H11.8809H11.8808H11.8807H11.8806H11.8805H11.8804H11.8803H11.8803H11.8802H11.8801H11.88H11.8799H11.8798H11.8797H11.8796H11.8796H11.8795H11.8794H11.8793H11.8792H11.8791H11.879H11.879H11.8789H11.8788H11.8787H11.8786H11.8785H11.8785H11.8784H11.8783H11.8782H11.8781H11.8781H11.878H11.8779H11.8778H11.8778H11.8777H11.8776H11.8775H11.8774H11.8774H11.8773H11.8772H11.8771H11.8771H11.877H11.8769H11.8769H11.8768H11.8767H11.8766H11.8766H11.8765H11.8764H11.8764H11.8763H11.8762H11.8761H11.8761H11.876H11.8759H11.8759H11.8758H11.8757H11.8757H11.8756H11.8755H11.8755H11.8754H11.8753H11.8753H11.8752H11.8752H11.8751H11.875H11.875H11.8749H11.8748H11.8748H11.8747H11.8747H11.8746H11.8745H11.8745H11.8744H11.8744H11.8743H11.8742H11.8742H11.8741H11.8741H11.874H11.874H11.8739H11.8738H11.8738H11.8737H11.8737H11.8736H11.8736H11.8735H11.8735H11.8734H11.8734H11.8733H11.8733H11.8732H11.8731H11.8731H11.873H11.873H11.8729H11.8729H11.8728H11.8728H11.8727H11.8727H11.8727H11.8726H11.8726H11.8725H11.8725H11.8724H11.8724H11.8723H11.8723H11.8722H11.8722H11.8721H11.8721H11.872H11.872H11.872H11.8719H11.8719H11.8718H11.8718H11.8717H11.8717H11.8717H11.8716H11.8716H11.8715H11.8715H11.8715H11.8714H11.8714H11.8713H11.8713H11.8713H11.8712H11.8712H11.8711H11.8711H11.8711H11.871H11.871H11.871H11.8709H11.8709H11.8708H11.8708H11.8708H11.8707H11.8707H11.8707H11.8706H11.8706H11.8706H11.8705H11.8705H11.8705H11.8704H11.8704H11.8704H11.8703H11.8703H11.8703H11.8702H11.8702H11.8702H11.8702H11.8701H11.8701H11.8701H11.87H11.87H11.87H11.8699H11.8699H11.8699H11.8699H11.8698H11.8698H11.8698H11.8697H11.8697H11.8697H11.8697H11.8696H11.8696H11.8696H11.8696H11.8695H11.8695H11.8695H11.8695H11.8694H11.8694H11.8694H11.8694H11.8693H11.8693H11.8693H11.8693H11.8693H11.8692H11.8692H11.8692H11.8692H11.8691H11.8691H11.8691H11.8691H11.8691H11.869H11.869H11.869H11.869H11.869H11.8689H11.8689H11.8689H11.8689H11.8689H11.8688H11.8688H11.8688H11.8688H11.8688H11.8688H11.8687H11.8687H11.8687H11.8687H11.8687H11.8687H11.8686H11.8686H11.8686H11.8686H11.8686H11.8686H11.8685H11.8685H11.8685H11.8685H11.8685H11.8685H11.8685H11.8684H11.8684H11.8684H11.8684H11.8684H11.8684H11.8684H11.8683H11.8683H11.8683H11.8683H11.8683H11.8683H11.8683H11.8683H11.8682H11.8682H11.8682H11.8682H11.8682H11.8682H11.8682H11.8682H11.8682H11.8681H11.8681H11.8681H11.8681H11.8681H11.8681H11.8681H11.8681H11.8681H11.8681H11.8681H11.868H11.868H11.868H11.868H11.868H11.868H11.868H11.868H11.868H11.868H11.868H11.868H11.8679H11.8679H11.8679H11.8679H11.8679H11.8679H11.8679H11.8679H11.8679H11.8679H11.8679H11.8679H11.8679H11.8679H11.8679H11.8679H11.8678H11.8678H11.8678H11.8678H11.8678H11.8678H11.8678H11.8678H11.8678H11.8678H11.8678H11.8678H11.8678H11.8678H11.8678H11.8678H11.8678H11.8678H11.8678H11.8678H11.8678H11.8677H11.8677H11.8677H11.8677H11.8677H11.8677H11.8677H11.8677H11.8677H11.8677H11.8677H11.8677H11.8677H11.8677H11.8677H11.8677H11.8677H11.8677H11.8677H11.8677H11.8675H11.8674H11.8673H11.8671H11.867H11.8669H11.8667H11.8666H11.8665H11.8664H11.8662H11.8661H11.866H11.8659H11.8657H11.8656H11.8655H11.8654H11.8652H11.8651H11.865H11.8649H11.8648H11.8646H11.8645H11.8644H11.8643H11.8642H11.864H11.8639H11.8638H11.8637H11.8636H11.8635H11.8634H11.8632H11.8631H11.863H11.8629H11.8628H11.8627H11.8626H11.8625H11.8623H11.8622H11.8621H11.862H11.8619H11.8618H11.8617H11.8616H11.8615H11.8614H11.8613H11.8612H11.8611H11.8609H11.8608H11.8607H11.8606H11.8605H11.8604H11.8603H11.8602H11.8601H11.86H11.8599H11.8598H11.8597H11.8596H11.8595H11.8594H11.8593H11.8592H11.8591H11.8591H11.859H11.8589H11.8588H11.8587H11.8586H11.8585H11.8584H11.8583H11.8582H11.8581H11.858H11.8579H11.8578H11.8578H11.8577H11.8576H11.8575H11.8574H11.8573H11.8572H11.8571H11.8571H11.857H11.8569H11.8568H11.8567H11.8566H11.8565H11.8565H11.8564H11.8563H11.8562H11.8561H11.856H11.856H11.8559H11.8558H11.8557H11.8556H11.8556H11.8555H11.8554H11.8553H11.8553H11.8552H11.8551H11.855H11.8549H11.8549H11.8548H11.8547H11.8546H11.8546H11.8545H11.8544H11.8544H11.8543H11.8542H11.8541H11.8541H11.854H11.8539H11.8539H11.8538H11.8537H11.8536H11.8536H11.8535H11.8534H11.8534H11.8533H11.8532H11.8532H11.8531H11.853H11.853H11.8529H11.8528H11.8528H11.8527H11.8527H11.8526H11.8525H11.8525H11.8524H11.8523H11.8523H11.8522H11.8522H11.8521H11.852H11.852H11.8519H11.8519H11.8518H11.8517H11.8517H11.8516H11.8516H11.8515H11.8515H11.8514H11.8513H11.8513H11.8512H11.8512H11.8511H11.8511H11.851H11.851H11.8509H11.8509H11.8508H11.8508H11.8507H11.8506H11.8506H11.8505H11.8505H11.8504H11.8504H11.8503H11.8503H11.8502H11.8502H11.8502H11.8501H11.8501H11.85H11.85H11.8499H11.8499H11.8498H11.8498H11.8497H11.8497H11.8496H11.8496H11.8495H11.8495H11.8495H11.8494H11.8494H11.8493H11.8493H11.8492H11.8492H11.8492H11.8491H11.8491H11.849H11.849H11.849H11.8489H11.8489H11.8488H11.8488H11.8488H11.8487H11.8487H11.8486H11.8486H11.8486H11.8485H11.8485H11.8485H11.8484H11.8484H11.8483H11.8483H11.8483H11.8482H11.8482H11.8482H11.8481H11.8481H11.8481H11.848H11.848H11.848H11.8479H11.8479H11.8479H11.8478H11.8478H11.8478H11.8477H11.8477H11.8477H11.8477H11.8476H11.8476H11.8476H11.8475H11.8475H11.8475H11.8474H11.8474H11.8474H11.8474H11.8473H11.8473H11.8473H11.8472H11.8472H11.8472H11.8472H11.8471H11.8471H11.8471H11.8471H11.847H11.847H11.847H11.847H11.8469H11.8469H11.8469H11.8469H11.8468H11.8468H11.8468H11.8468H11.8468H11.8467H11.8467H11.8467H11.8467H11.8466H11.8466H11.8466H11.8466H11.8466H11.8465H11.8465H11.8465H11.8465H11.8465H11.8464H11.8464H11.8464H11.8464H11.8464H11.8463H11.8463H11.8463H11.8463H11.8463H11.8463H11.8462H11.8462H11.8462H11.8462H11.8462H11.8462H11.8461H11.8461H11.8461H11.8461H11.8461H11.8461H11.846H11.846H11.846H11.846H11.846H11.846H11.846H11.8459H11.8459H11.8459H11.8459H11.8459H11.8459H11.8459H11.8458H11.8458H11.8458H11.8458H11.8458H11.8458H11.8458H11.8458H11.8457H11.8457H11.8457H11.8457H11.8457H11.8457H11.8457H11.8457H11.8457H11.8456H11.8456H11.8456H11.8456H11.8456H11.8456H11.8456H11.8456H11.8456H11.8456H11.8456H11.8455H11.8455H11.8455H11.8455H11.8455H11.8455H11.8455H11.8455H11.8455H11.8455H11.8455H11.8455H11.8454H11.8454H11.8454H11.8454H11.8454H11.8454H11.8454H11.8454H11.8454H11.8454H11.8454H11.8454H11.8454H11.8454H11.8454H11.8454H11.8453H11.8453H11.8453H11.8453H11.8453H11.8453H11.8453H11.8453H11.8453H11.8453H11.8453H11.8453H11.8453H11.8453H11.8453H11.8453H11.8453H11.8453H11.8453H11.8453H11.8453H11.8452H11.8452H11.8452H11.8452H11.8452H11.8452H11.8452H11.8452H11.8452H11.8452H11.8452H11.8452H11.8452H11.8452H11.8452H11.8452H11.8452H11.8452H11.8452H11.8452C11.7567 16.785 11.6983 16.7265 11.6565 16.6846C11.6551 16.6831 11.6537 16.6817 11.6523 16.6804L11.6377 16.6657V16.6544M12.0267 16.7576C14.8323 15.9383 16.7993 13.4022 16.9351 10.4598L16.9352 10.4598V10.4575V10.4574V10.4573V10.4571V10.457V10.4569V10.4567V10.4566V10.4565V10.4564V10.4562V10.4561V10.456V10.4558V10.4557V10.4556V10.4555V10.4553V10.4552V10.4551V10.455V10.4549V10.4547V10.4546V10.4545V10.4544V10.4543V10.4541V10.454V10.4539V10.4538V10.4537V10.4536V10.4534V10.4533V10.4532V10.4531V10.453V10.4529V10.4527V10.4526V10.4525V10.4524V10.4523V10.4522V10.4521V10.452V10.4519V10.4517V10.4516V10.4515V10.4514V10.4513V10.4512V10.4511V10.451V10.4509V10.4508V10.4507V10.4506V10.4505V10.4504V10.4503V10.4501V10.45V10.4499V10.4498V10.4497V10.4496V10.4495V10.4494V10.4493V10.4492V10.4491V10.449V10.4489V10.4488V10.4487V10.4486V10.4485V10.4484V10.4483V10.4483V10.4482V10.4481V10.448V10.4479V10.4478V10.4477V10.4476V10.4475V10.4474V10.4473V10.4472V10.4471V10.447V10.4469V10.4468V10.4468V10.4467V10.4466V10.4465V10.4464V10.4463V10.4462V10.4461V10.446V10.4459V10.4459V10.4458V10.4457V10.4456V10.4455V10.4454V10.4453V10.4453V10.4452V10.4451V10.445V10.4449V10.4448V10.4447V10.4447V10.4446V10.4445V10.4444V10.4443V10.4442V10.4442V10.4441V10.444V10.4439V10.4438V10.4437V10.4437V10.4436V10.4435V10.4434V10.4433V10.4433V10.4432V10.4431V10.443V10.4429V10.4429V10.4428V10.4427V10.4426V10.4426V10.4425V10.4424V10.4423V10.4423V10.4422V10.4421V10.442V10.4419V10.4419V10.4418V10.4417V10.4416V10.4416V10.4415V10.4414V10.4413V10.4413V10.4412V10.4411V10.441V10.441V10.4409V10.4408V10.4408V10.4407V10.4406V10.4405V10.4405V10.4404L11.6377 16.6544M11.6377 16.6544C11.6389 16.6557 11.6399 16.6567 11.6406 16.6574L11.6411 16.6579C11.6425 16.6594 11.6431 16.66 11.6431 16.66C11.6431 16.6599 11.6422 16.6589 11.6413 16.6574C11.6388 16.6533 11.6377 16.6486 11.6377 16.645V16.6544ZM11.6377 16.6544C11.6344 16.651 11.6297 16.6457 11.6258 16.6391C11.6231 16.6346 11.6208 16.6297 11.6191 16.6246M11.6377 16.6544L11.6202 16.5325M11.6191 16.6246C11.6224 16.628 11.6257 16.6313 11.6287 16.6343L11.6298 16.6354L11.6652 16.6H11.6152C11.6152 16.6088 11.6166 16.617 11.6191 16.6246ZM11.6191 16.6246C11.6108 16.6161 11.6018 16.6063 11.5942 16.5963C11.5864 16.5858 11.5769 16.5709 11.5726 16.5527M11.5726 16.5527C11.576 16.5581 11.5801 16.5632 11.5848 16.5679L11.6202 16.5325M11.5726 16.5527C11.5672 16.5442 11.5634 16.5349 11.5615 16.5249C11.5586 16.5093 11.5609 16.4957 11.5632 16.4866C11.5644 16.482 11.5663 16.476 11.5677 16.4718M11.5726 16.5527C11.5711 16.5464 11.5702 16.5396 11.5702 16.5325H11.6202M11.6202 16.5325L11.5677 16.4718" fill="#6B7280" stroke="#6B7280" stroke-width="0.1"/>
<path d="M3.24496 8.73438C3.24171 8.73097 3.23705 8.72563 3.2331 8.71905C3.22643 8.70793 3.22246 8.69484 3.22246 8.67996H3.27246V8.63496V8.56746M3.24496 8.73438L3.29496 8.72496C3.30099 8.73702 3.3054 8.74746 3.3095 8.75716C3.32069 8.78364 3.32952 8.80452 3.36246 8.83746C3.38496 8.85996 3.40746 8.88246 3.42996 8.88246M3.24496 8.73438V8.73677L3.25024 8.74732C3.25435 8.75554 3.25785 8.76387 3.26147 8.77248C3.27344 8.80091 3.28669 8.83241 3.32711 8.87282L3.32823 8.87394C3.33867 8.88439 3.35207 8.8978 3.36621 8.9084C3.37594 8.9157 3.38945 8.92437 3.40593 8.92905M3.24496 8.73438L16.755 8.75692M3.27246 8.56746C3.99246 5.41746 6.75996 3.21246 9.99996 3.21246C13.24 3.21246 16.0075 5.41746 16.7275 8.56746M3.27246 8.56746H3.22246V8.55604L3.27246 8.56746ZM16.7275 8.56746V8.61246C16.7275 8.62371 16.7331 8.63496 16.7387 8.64621C16.7443 8.65746 16.75 8.66871 16.75 8.67996C16.7387 8.70246 16.7275 8.71371 16.719 8.72215C16.7106 8.73059 16.705 8.73621 16.705 8.74746C16.6937 8.75871 16.6825 8.77559 16.6712 8.79246C16.66 8.80934 16.6487 8.82621 16.6375 8.83746C16.6262 8.84871 16.615 8.85434 16.6037 8.85996C16.5925 8.86559 16.5812 8.87121 16.57 8.88246C16.5475 8.90496 16.525 8.92746 16.5025 8.92746H16.435H16.4125H16.39C12.16 8.27496 7.86246 8.27496 3.60996 8.92746H3.56496H3.54246H3.49746C3.47496 8.92746 3.45246 8.90496 3.42996 8.88246M16.7275 8.56746L16.7762 8.55632L16.7788 8.56746H16.7275ZM3.42996 8.88246L3.39461 8.91782L3.39572 8.91894C3.39888 8.92209 3.4023 8.92552 3.40593 8.92905M3.42996 8.88246V8.93246C3.4214 8.93246 3.41336 8.93116 3.40593 8.92905M3.40593 8.92905C3.41433 8.93723 3.42384 8.946 3.43371 8.9534C3.44783 8.96399 3.4699 8.97746 3.49746 8.97746H3.49759H3.49772H3.49785H3.49798H3.49811H3.49824H3.49837H3.4985H3.49863H3.49875H3.49888H3.49901H3.49913H3.49926H3.49938H3.49951H3.49963H3.49975H3.49988H3.5H3.50012H3.50024H3.50036H3.50048H3.5006H3.50072H3.50084H3.50096H3.50108H3.50119H3.50131H3.50143H3.50154H3.50166H3.50177H3.50189H3.502H3.50212H3.50223H3.50234H3.50246H3.50257H3.50268H3.50279H3.5029H3.50301H3.50312H3.50323H3.50334H3.50345H3.50356H3.50367H3.50377H3.50388H3.50399H3.5041H3.5042H3.50431H3.50441H3.50452H3.50462H3.50472H3.50483H3.50493H3.50503H3.50514H3.50524H3.50534H3.50544H3.50554H3.50564H3.50574H3.50584H3.50594H3.50604H3.50614H3.50624H3.50634H3.50643H3.50653H3.50663H3.50672H3.50682H3.50692H3.50701H3.50711H3.5072H3.5073H3.50739H3.50748H3.50758H3.50767H3.50776H3.50786H3.50795H3.50804H3.50813H3.50822H3.50831H3.5084H3.5085H3.50859H3.50867H3.50876H3.50885H3.50894H3.50903H3.50912H3.50921H3.50929H3.50938H3.50947H3.50955H3.50964H3.50973H3.50981H3.5099H3.50998H3.51007H3.51015H3.51024H3.51032H3.51041H3.51049H3.51057H3.51065H3.51074H3.51082H3.5109H3.51098H3.51107H3.51115H3.51123H3.51131H3.51139H3.51147H3.51155H3.51163H3.51171H3.51179H3.51187H3.51195H3.51203H3.51211H3.51219H3.51226H3.51234H3.51242H3.5125H3.51257H3.51265H3.51273H3.5128H3.51288H3.51296H3.51303H3.51311H3.51319H3.51326H3.51334H3.51341H3.51349H3.51356H3.51364H3.51371H3.51378H3.51386H3.51393H3.51401H3.51408H3.51415H3.51423H3.5143H3.51437H3.51444H3.51452H3.51459H3.51466H3.51473H3.5148H3.51488H3.51495H3.51502H3.51509H3.51516H3.51523H3.5153H3.51537H3.51544H3.51551H3.51558H3.51565H3.51572H3.51579H3.51586H3.51593H3.516H3.51607H3.51614H3.51621H3.51628H3.51635H3.51642H3.51649H3.51655H3.51662H3.51669H3.51676H3.51683H3.5169H3.51696H3.51703H3.5171H3.51717H3.51724H3.5173H3.51737H3.51744H3.5175H3.51757H3.51764H3.51771H3.51777H3.51784H3.51791H3.51797H3.51804H3.51811H3.51817H3.51824H3.51831H3.51837H3.51844H3.51851H3.51857H3.51864H3.51871H3.51877H3.51884H3.5189H3.51897H3.51904H3.5191H3.51917H3.51924H3.5193H3.51937H3.51943H3.5195H3.51957H3.51963H3.5197H3.51976H3.51983H3.51989H3.51996H3.52003H3.52009H3.52016H3.52022H3.52029H3.52036H3.52042H3.52049H3.52055H3.52062H3.52069H3.52075H3.52082H3.52088H3.52095H3.52102H3.52108H3.52115H3.52122H3.52128H3.52135H3.52141H3.52148H3.52155H3.52161H3.52168H3.52175H3.52181H3.52188H3.52195H3.52201H3.52208H3.52215H3.52222H3.52228H3.52235H3.52242H3.52248H3.52255H3.52262H3.52269H3.52275H3.52282H3.52289H3.52296H3.52303H3.52309H3.52316H3.52323H3.5233H3.52337H3.52344H3.5235H3.52357H3.52364H3.52371H3.52378H3.52385H3.52392H3.52399H3.52406H3.52413H3.5242H3.52427H3.52434H3.52441H3.52448H3.52455H3.52462H3.52469H3.52476H3.52483H3.5249H3.52497H3.52505H3.52512H3.52519H3.52526H3.52533H3.52541H3.52548H3.52555H3.52562H3.5257H3.52577H3.52584H3.52592H3.52599H3.52606H3.52614H3.52621H3.52629H3.52636H3.52644H3.52651H3.52659H3.52666H3.52674H3.52681H3.52689H3.52696H3.52704H3.52712H3.52719H3.52727H3.52735H3.52742H3.5275H3.52758H3.52766H3.52774H3.52781H3.52789H3.52797H3.52805H3.52813H3.52821H3.52829H3.52837H3.52845H3.52853H3.52861H3.52869H3.52877H3.52886H3.52894H3.52902H3.5291H3.52918H3.52927H3.52935H3.52943H3.52952H3.5296H3.52968H3.52977H3.52985H3.52994H3.53002H3.53011H3.53019H3.53028H3.53037H3.53045H3.53054H3.53063H3.53072H3.5308H3.53089H3.53098H3.53107H3.53116H3.53125H3.53134H3.53143H3.53152H3.53161H3.5317H3.53179H3.53188H3.53197H3.53206H3.53216H3.53225H3.53234H3.53244H3.53253H3.53262H3.53272H3.53281H3.53291H3.533H3.5331H3.5332H3.53329H3.53339H3.53349H3.53358H3.53368H3.53378H3.53388H3.53398H3.53408H3.53418H3.53428H3.53438H3.53448H3.53458H3.53468H3.53478H3.53489H3.53499H3.53509H3.5352H3.5353H3.53541H3.53551H3.53561H3.53572H3.53583H3.53593H3.53604H3.53615H3.53625H3.53636H3.53647H3.53658H3.53669H3.5368H3.53691H3.53702H3.53713H3.53724H3.53735H3.53747H3.53758H3.53769H3.5378H3.53792H3.53803H3.53815H3.53826H3.53838H3.53849H3.53861H3.53873H3.53885H3.53896H3.53908H3.5392H3.53932H3.53944H3.53956H3.53968H3.5398H3.53992H3.54005H3.54017H3.54029H3.54042H3.54054H3.54066H3.54079H3.54092H3.54104H3.54117H3.54129H3.54142H3.54155H3.54168H3.54181H3.54194H3.54207H3.5422H3.54233H3.54246H3.56496H3.56509H3.56522H3.56535H3.56548H3.56561H3.56574H3.56587H3.566H3.56613H3.56625H3.56638H3.56651H3.56663H3.56676H3.56688H3.56701H3.56713H3.56725H3.56738H3.5675H3.56762H3.56774H3.56786H3.56798H3.5681H3.56822H3.56834H3.56846H3.56858H3.56869H3.56881H3.56893H3.56904H3.56916H3.56927H3.56939H3.5695H3.56962H3.56973H3.56984H3.56996H3.57007H3.57018H3.57029H3.5704H3.57051H3.57062H3.57073H3.57084H3.57095H3.57106H3.57117H3.57127H3.57138H3.57149H3.57159H3.5717H3.57181H3.57191H3.57202H3.57212H3.57222H3.57233H3.57243H3.57253H3.57264H3.57274H3.57284H3.57294H3.57304H3.57314H3.57324H3.57334H3.57344H3.57354H3.57364H3.57374H3.57384H3.57393H3.57403H3.57413H3.57422H3.57432H3.57442H3.57451H3.57461H3.5747H3.5748H3.57489H3.57498H3.57508H3.57517H3.57526H3.57536H3.57545H3.57554H3.57563H3.57572H3.57581H3.5759H3.57599H3.57608H3.57617H3.57626H3.57635H3.57644H3.57653H3.57662H3.57671H3.57679H3.57688H3.57697H3.57705H3.57714H3.57723H3.57731H3.5774H3.57748H3.57757H3.57765H3.57774H3.57782H3.5779H3.57799H3.57807H3.57815H3.57824H3.57832H3.5784H3.57848H3.57857H3.57865H3.57873H3.57881H3.57889H3.57897H3.57905H3.57913H3.57921H3.57929H3.57937H3.57945H3.57953H3.57961H3.57969H3.57976H3.57984H3.57992H3.58H3.58007H3.58015H3.58023H3.5803H3.58038H3.58046H3.58053H3.58061H3.58069H3.58076H3.58084H3.58091H3.58099H3.58106H3.58114H3.58121H3.58128H3.58136H3.58143H3.58151H3.58158H3.58165H3.58173H3.5818H3.58187H3.58194H3.58202H3.58209H3.58216H3.58223H3.5823H3.58238H3.58245H3.58252H3.58259H3.58266H3.58273H3.5828H3.58287H3.58294H3.58301H3.58308H3.58315H3.58322H3.58329H3.58336H3.58343H3.5835H3.58357H3.58364H3.58371H3.58378H3.58385H3.58392H3.58399H3.58405H3.58412H3.58419H3.58426H3.58433H3.5844H3.58446H3.58453H3.5846H3.58467H3.58474H3.5848H3.58487H3.58494H3.585H3.58507H3.58514H3.58521H3.58527H3.58534H3.58541H3.58547H3.58554H3.58561H3.58567H3.58574H3.58581H3.58587H3.58594H3.58601H3.58607H3.58614H3.58621H3.58627H3.58634H3.5864H3.58647H3.58654H3.5866H3.58667H3.58674H3.5868H3.58687H3.58693H3.587H3.58707H3.58713H3.5872H3.58726H3.58733H3.58739H3.58746H3.58753H3.58759H3.58766H3.58772H3.58779H3.58786H3.58792H3.58799H3.58805H3.58812H3.58819H3.58825H3.58832H3.58838H3.58845H3.58852H3.58858H3.58865H3.58872H3.58878H3.58885H3.58891H3.58898H3.58905H3.58911H3.58918H3.58925H3.58931H3.58938H3.58945H3.58951H3.58958H3.58965H3.58972H3.58978H3.58985H3.58992H3.58998H3.59005H3.59012H3.59019H3.59025H3.59032H3.59039H3.59046H3.59053H3.59059H3.59066H3.59073H3.5908H3.59087H3.59094H3.591H3.59107H3.59114H3.59121H3.59128H3.59135H3.59142H3.59149H3.59156H3.59163H3.5917H3.59177H3.59184H3.59191H3.59198H3.59205H3.59212H3.59219H3.59226H3.59233H3.5924H3.59247H3.59255H3.59262H3.59269H3.59276H3.59283H3.59291H3.59298H3.59305H3.59312H3.5932H3.59327H3.59334H3.59342H3.59349H3.59356H3.59364H3.59371H3.59379H3.59386H3.59394H3.59401H3.59409H3.59416H3.59424H3.59431H3.59439H3.59446H3.59454H3.59462H3.59469H3.59477H3.59485H3.59492H3.595H3.59508H3.59516H3.59524H3.59531H3.59539H3.59547H3.59555H3.59563H3.59571H3.59579H3.59587H3.59595H3.59603H3.59611H3.59619H3.59627H3.59636H3.59644H3.59652H3.5966H3.59668H3.59677H3.59685H3.59693H3.59702H3.5971H3.59718H3.59727H3.59735H3.59744H3.59752H3.59761H3.5977H3.59778H3.59787H3.59795H3.59804H3.59813H3.59822H3.5983H3.59839H3.59848H3.59857H3.59866H3.59875H3.59884H3.59893H3.59902H3.59911H3.5992H3.59929H3.59938H3.59947H3.59957H3.59966H3.59975H3.59984H3.59994H3.60003H3.60012H3.60022H3.60031H3.60041H3.6005H3.6006H3.6007H3.60079H3.60089H3.60099H3.60109H3.60118H3.60128H3.60138H3.60148H3.60158H3.60168H3.60178H3.60188H3.60198H3.60208H3.60218H3.60228H3.60239H3.60249H3.60259H3.6027H3.6028H3.60291H3.60301H3.60312H3.60322H3.60333H3.60343H3.60354H3.60365H3.60375H3.60386H3.60397H3.60408H3.60419H3.6043H3.60441H3.60452H3.60463H3.60474H3.60485H3.60497H3.60508H3.60519H3.6053H3.60542H3.60553H3.60565H3.60576H3.60588H3.60599H3.60611H3.60623H3.60635H3.60646H3.60658H3.6067H3.60682H3.60694H3.60706H3.60718H3.6073H3.60742H3.60755H3.60767H3.60779H3.60792H3.60804H3.60816H3.60829H3.60842H3.60854H3.60867H3.6088H3.60892H3.60905H3.60918H3.60931H3.60944H3.60957H3.6097H3.60983H3.60996V8.97805L3.61754 8.97689C7.86503 8.32515 12.1574 8.32516 16.3823 8.97688L16.3822 8.97746H16.39H16.39H16.39H16.39H16.39H16.39H16.39H16.39H16.39H16.39H16.39H16.3901H16.3901H16.3901H16.3901H16.3901H16.3901H16.3901H16.3901H16.3901H16.3901H16.3901H16.3902H16.3902H16.3902H16.3902H16.3902H16.3902H16.3902H16.3902H16.3903H16.3903H16.3903H16.3903H16.3903H16.3903H16.3903H16.3903H16.3903H16.3903H16.3903H16.3903H16.3904H16.3904H16.3904H16.3904H16.3904H16.3904H16.3904H16.3904H16.3904H16.3904H16.3905H16.3905H16.3905H16.3905H16.3905H16.3905H16.3905H16.3905H16.3905H16.3906H16.3906H16.3906H16.3906H16.3906H16.3906H16.3906H16.3906H16.3906H16.3907H16.3907H16.3907H16.3907H16.3907H16.3907H16.3907H16.3908H16.3908H16.3908H16.3908H16.3908H16.3908H16.3908H16.3909H16.3909H16.3909H16.3909H16.3909H16.3909H16.391H16.391H16.391H16.391H16.391H16.391H16.3911H16.3911H16.3911H16.3911H16.3911H16.3911H16.3912H16.3912H16.3912H16.3912H16.3912H16.3913H16.3913H16.3913H16.3913H16.3913H16.3914H16.3914H16.3914H16.3914H16.3914H16.3915H16.3915H16.3915H16.3915H16.3916H16.3916H16.3916H16.3916H16.3917H16.3917H16.3917H16.3917H16.3917H16.3918H16.3918H16.3918H16.3918H16.3919H16.3919H16.3919H16.3919H16.392H16.392H16.392H16.3921H16.3921H16.3921H16.3921H16.3922H16.3922H16.3922H16.3923H16.3923H16.3923H16.3923H16.3924H16.3924H16.3924H16.3925H16.3925H16.3925H16.3926H16.3926H16.3926H16.3926H16.3927H16.3927H16.3927H16.3928H16.3928H16.3928H16.3929H16.3929H16.3929H16.393H16.393H16.393H16.3931H16.3931H16.3932H16.3932H16.3932H16.3933H16.3933H16.3933H16.3934H16.3934H16.3934H16.3935H16.3935H16.3936H16.3936H16.3936H16.3937H16.3937H16.3938H16.3938H16.3938H16.3939H16.3939H16.394H16.394H16.3941H16.3941H16.3941H16.3942H16.3942H16.3943H16.3943H16.3944H16.3944H16.3944H16.3945H16.3945H16.3946H16.3946H16.3947H16.3947H16.3948H16.3948H16.3949H16.3949H16.395H16.395H16.3951H16.3951H16.3952H16.3952H16.3953H16.3953H16.3954H16.3954H16.3955H16.3955H16.3956H16.3956H16.3957H16.3957H16.3958H16.3958H16.3959H16.3959H16.396H16.396H16.3961H16.3962H16.3962H16.3963H16.3963H16.3964H16.3964H16.3965H16.3966H16.3966H16.3967H16.3967H16.3968H16.3968H16.3969H16.397H16.397H16.3971H16.3972H16.3972H16.3973H16.3973H16.3974H16.3975H16.3975H16.3976H16.3977H16.3977H16.3978H16.3978H16.3979H16.398H16.398H16.3981H16.3982H16.3982H16.3983H16.3984H16.3985H16.3985H16.3986H16.3987H16.3987H16.3988H16.3989H16.3989H16.399H16.3991H16.3992H16.3992H16.3993H16.3994H16.3995H16.3995H16.3996H16.3997H16.3998H16.3998H16.3999H16.4H16.4001H16.4001H16.4002H16.4003H16.4004H16.4005H16.4005H16.4006H16.4007H16.4008H16.4009H16.4009H16.401H16.4011H16.4012H16.4013H16.4013H16.4014H16.4015H16.4016H16.4017H16.4018H16.4019H16.4019H16.402H16.4021H16.4022H16.4023H16.4024H16.4025H16.4026H16.4026H16.4027H16.4028H16.4029H16.403H16.4031H16.4032H16.4033H16.4034H16.4035H16.4036H16.4037H16.4038H16.4039H16.404H16.404H16.4041H16.4042H16.4043H16.4044H16.4045H16.4046H16.4047H16.4048H16.4049H16.405H16.4051H16.4052H16.4053H16.4054H16.4055H16.4056H16.4058H16.4059H16.406H16.4061H16.4062H16.4063H16.4064H16.4065H16.4066H16.4067H16.4068H16.4069H16.407H16.4071H16.4073H16.4074H16.4075H16.4076H16.4077H16.4078H16.4079H16.408H16.4082H16.4083H16.4084H16.4085H16.4086H16.4087H16.4089H16.409H16.4091H16.4092H16.4093H16.4094H16.4096H16.4097H16.4098H16.4099H16.41H16.4102H16.4103H16.4104H16.4105H16.4107H16.4108H16.4109H16.411H16.4112H16.4113H16.4114H16.4116H16.4117H16.4118H16.4119H16.4121H16.4122H16.4123H16.4125H16.435H16.4351H16.4352H16.4354H16.4355H16.4356H16.4358H16.4359H16.436H16.4361H16.4363H16.4364H16.4365H16.4367H16.4368H16.4369H16.4371H16.4372H16.4373H16.4375H16.4376H16.4377H16.4379H16.438H16.4381H16.4383H16.4384H16.4385H16.4387H16.4388H16.4389H16.439H16.4392H16.4393H16.4394H16.4396H16.4397H16.4398H16.44H16.4401H16.4402H16.4404H16.4405H16.4406H16.4408H16.4409H16.441H16.4412H16.4413H16.4414H16.4416H16.4417H16.4418H16.4419H16.4421H16.4422H16.4423H16.4425H16.4426H16.4427H16.4429H16.443H16.4431H16.4433H16.4434H16.4435H16.4437H16.4438H16.4439H16.4441H16.4442H16.4443H16.4445H16.4446H16.4447H16.4448H16.445H16.4451H16.4452H16.4454H16.4455H16.4456H16.4458H16.4459H16.446H16.4462H16.4463H16.4464H16.4466H16.4467H16.4468H16.447H16.4471H16.4472H16.4474H16.4475H16.4476H16.4477H16.4479H16.448H16.4481H16.4483H16.4484H16.4485H16.4487H16.4488H16.4489H16.4491H16.4492H16.4493H16.4495H16.4496H16.4497H16.4499H16.45H16.4501H16.4503H16.4504H16.4505H16.4507H16.4508H16.4509H16.451H16.4512H16.4513H16.4514H16.4516H16.4517H16.4518H16.452H16.4521H16.4522H16.4524H16.4525H16.4526H16.4528H16.4529H16.453H16.4532H16.4533H16.4534H16.4536H16.4537H16.4538H16.4539H16.4541H16.4542H16.4543H16.4545H16.4546H16.4547H16.4549H16.455H16.4551H16.4553H16.4554H16.4555H16.4557H16.4558H16.4559H16.4561H16.4562H16.4563H16.4565H16.4566H16.4567H16.4568H16.457H16.4571H16.4572H16.4574H16.4575H16.4576H16.4578H16.4579H16.458H16.4582H16.4583H16.4584H16.4586H16.4587H16.4588H16.459H16.4591H16.4592H16.4594H16.4595H16.4596H16.4597H16.4599H16.46H16.4601H16.4603H16.4604H16.4605H16.4607H16.4608H16.4609H16.4611H16.4612H16.4613H16.4615H16.4616H16.4617H16.4619H16.462H16.4621H16.4623H16.4624H16.4625H16.4626H16.4628H16.4629H16.463H16.4632H16.4633H16.4634H16.4636H16.4637H16.4638H16.464H16.4641H16.4642H16.4644H16.4645H16.4646H16.4648H16.4649H16.465H16.4652H16.4653H16.4654H16.4655H16.4657H16.4658H16.4659H16.4661H16.4662H16.4663H16.4665H16.4666H16.4667H16.4669H16.467H16.4671H16.4673H16.4674H16.4675H16.4677H16.4678H16.4679H16.4681H16.4682H16.4683H16.4684H16.4686H16.4687H16.4688H16.469H16.4691H16.4692H16.4694H16.4695H16.4696H16.4698H16.4699H16.47H16.4702H16.4703H16.4704H16.4706H16.4707H16.4708H16.471H16.4711H16.4712H16.4713H16.4715H16.4716H16.4717H16.4719H16.472H16.4721H16.4723H16.4724H16.4725H16.4727H16.4728H16.4729H16.4731H16.4732H16.4733H16.4735H16.4736H16.4737H16.4739H16.474H16.4741H16.4742H16.4744H16.4745H16.4746H16.4748H16.4749H16.475H16.4752H16.4753H16.4754H16.4756H16.4757H16.4758H16.476H16.4761H16.4762H16.4764H16.4765H16.4766H16.4768H16.4769H16.477H16.4771H16.4773H16.4774H16.4775H16.4777H16.4778H16.4779H16.4781H16.4782H16.4783H16.4785H16.4786H16.4787H16.4789H16.479H16.4791H16.4793H16.4794H16.4795H16.4797H16.4798H16.4799H16.4801H16.4802H16.4803H16.4804H16.4806H16.4807H16.4808H16.481H16.4811H16.4812H16.4814H16.4815H16.4816H16.4818H16.4819H16.482H16.4822H16.4823H16.4824H16.4826H16.4827H16.4828H16.483H16.4831H16.4832H16.4833H16.4835H16.4836H16.4837H16.4839H16.484H16.4841H16.4843H16.4844H16.4845H16.4847H16.4848H16.4849H16.4851H16.4852H16.4853H16.4855H16.4856H16.4857H16.4859H16.486H16.4861H16.4862H16.4864H16.4865H16.4866H16.4868H16.4869H16.487H16.4872H16.4873H16.4874H16.4876H16.4877H16.4878H16.488H16.4881H16.4882H16.4884H16.4885H16.4886H16.4888H16.4889H16.489H16.4891H16.4893H16.4894H16.4895H16.4897H16.4898H16.4899H16.4901H16.4902H16.4903H16.4905H16.4906H16.4907H16.4909H16.491H16.4911H16.4913H16.4914H16.4915H16.4917H16.4918H16.4919H16.492H16.4922H16.4923H16.4924H16.4926H16.4927H16.4928H16.493H16.4931H16.4932H16.4934H16.4935H16.4936H16.4938H16.4939H16.494H16.4942H16.4943H16.4944H16.4946H16.4947H16.4948H16.4949H16.4951H16.4952H16.4953H16.4955H16.4956H16.4957H16.4959H16.496H16.4961H16.4963H16.4964H16.4965H16.4967H16.4968H16.4969H16.4971H16.4972H16.4973H16.4975H16.4976H16.4977H16.4978H16.498H16.4981H16.4982H16.4984H16.4985H16.4986H16.4988H16.4989H16.499H16.4992H16.4993H16.4994H16.4996H16.4997H16.4998H16.5H16.5001H16.5002H16.5004H16.5005H16.5006H16.5007H16.5009H16.501H16.5011H16.5013H16.5014H16.5015H16.5017H16.5018H16.5019H16.5021H16.5022H16.5023H16.5025C16.53 8.97746 16.5521 8.96399 16.5662 8.9534C16.5803 8.9428 16.5937 8.92939 16.6042 8.91895L16.6053 8.91782C16.6103 8.91288 16.6148 8.9103 16.6261 8.90469L16.6271 8.90417C16.6384 8.89852 16.6558 8.88985 16.6728 8.87282C16.6876 8.85799 16.7013 8.83754 16.7114 8.82228L16.7128 8.8202C16.725 8.8019 16.7333 8.7898 16.7403 8.78282L16.755 8.76817V8.75692M16.755 8.75692C16.7649 8.74702 16.7802 8.73134 16.7947 8.70232L16.8 8.69177V8.67996C16.8 8.66615 16.7965 8.65426 16.7933 8.64553C16.7902 8.63739 16.7864 8.62972 16.7838 8.62456L16.7834 8.62385C16.7804 8.61775 16.7788 8.61451 16.7778 8.61178C16.7776 8.6114 16.7775 8.61109 16.7775 8.61084M16.755 8.75692L16.7775 8.60804V8.60815V8.60827V8.60838V8.6085V8.60861V8.60873V8.60885V8.60897V8.60909V8.6092V8.60932V8.60944V8.60956V8.60968V8.60981V8.60993V8.61005V8.61017V8.61029V8.61042V8.61054V8.61067V8.61079V8.61084M16.755 8.75692C16.7548 8.75712 16.7546 8.75731 16.7544 8.75751C16.7514 8.76053 16.7503 8.76166 16.7502 8.76176C16.7501 8.76183 16.7506 8.76132 16.751 8.7606C16.7536 8.7566 16.755 8.75153 16.755 8.74746V8.75692ZM16.7775 8.61084C16.7773 8.61048 16.7773 8.61027 16.7773 8.61021C16.7772 8.61004 16.7775 8.61089 16.7775 8.61246V8.61233V8.6122V8.61207V8.61194V8.61181V8.61168V8.61155V8.61142V8.6113V8.61117V8.61104V8.61092V8.61084Z" fill="#6B7280" stroke="#6B7280" stroke-width="0.1"/>
<path d="M3.52888 10.115L3.53743 10.1182L3.52888 10.115ZM3.52888 10.115H3.51975M3.52888 10.115H3.51975M3.51975 10.115H3.51961H3.51948H3.51935H3.51922H3.51909H3.51896H3.51882H3.51869H3.51856H3.51843H3.5183H3.51816H3.51803H3.5179H3.51777H3.51764H3.51751H3.51737H3.51724H3.51711H3.51698H3.51685H3.51671H3.51658H3.51645H3.51632H3.51619H3.51605H3.51592H3.51579H3.51566H3.51553H3.5154H3.51526H3.51513H3.515H3.51487H3.51474H3.5146H3.51447H3.51434H3.51421H3.51408H3.51395H3.51381H3.51368H3.51355H3.51342H3.51329H3.51315H3.51302H3.51289H3.51276H3.51263H3.5125H3.51236H3.51223H3.5121H3.51197H3.51184H3.5117H3.51157H3.51144H3.51131H3.51118H3.51105H3.51091H3.51078H3.51065H3.51052H3.51039H3.51025H3.51012H3.50999H3.50986H3.50973H3.50959H3.50946H3.50933H3.5092H3.50907H3.50894H3.5088H3.50867H3.50854H3.50841H3.50828H3.50814H3.50801H3.50788H3.50775H3.50762H3.50749H3.50735H3.50722H3.50709H3.50696H3.50683H3.50669H3.50656H3.50643H3.5063H3.50617H3.50604H3.5059H3.50577H3.50564H3.50551H3.50538H3.50524H3.50511H3.50498H3.50485H3.50472H3.50459H3.50445H3.50432H3.50419H3.50406H3.50393H3.50379H3.50366H3.50353H3.5034H3.50327H3.50313H3.503H3.50287H3.50274H3.50261H3.50248H3.50234H3.50221H3.50208H3.50195H3.50182H3.50168H3.50155H3.50142H3.50129H3.50116H3.50103H3.50089H3.50076H3.50063H3.5005H3.50037H3.50023H3.5001H3.49997H3.49984H3.49971H3.49958H3.49944H3.49931H3.49918H3.49905H3.49892H3.49878H3.49865H3.49852H3.49839H3.49826H3.49813H3.49799H3.49786H3.49773H3.4976H3.49747H3.49733H3.4972H3.49707H3.49694H3.49681H3.49668H3.49654H3.49641H3.49628H3.49615H3.49602H3.49588H3.49575H3.49562H3.49549H3.49536H3.49522H3.49509H3.49496H3.49483H3.4947H3.49457H3.49443H3.4943H3.49417H3.49404H3.49391H3.49377H3.49364H3.49351H3.49338H3.49325H3.49312H3.49298H3.49285H3.49272H3.49259H3.49246H3.49232H3.49219H3.49206H3.49193H3.4918H3.49167H3.49153H3.4914H3.49127H3.49114H3.49101H3.49087H3.49074H3.49061H3.49048H3.49035H3.49022H3.49008H3.48995H3.48982H3.48969H3.48956H3.48942H3.48929H3.48916H3.48903H3.4889H3.48876H3.48863H3.4885H3.48837H3.48824H3.48811H3.48797H3.48784H3.48771H3.48758H3.48745H3.48731H3.48718H3.48705H3.48692H3.48679H3.48666H3.48652H3.48639H3.48626H3.48613H3.486H3.48586H3.48573H3.4856H3.48547H3.48534H3.48521H3.48507H3.48494H3.48481H3.48468H3.48455H3.48441H3.48428H3.48415H3.48402H3.48389H3.48376H3.48362H3.48349H3.48336H3.48323H3.4831H3.48296H3.48283H3.4827H3.48257H3.48244H3.4823H3.48217H3.48204H3.48191H3.48178H3.48165H3.48151H3.48138H3.48125H3.48112H3.48099H3.48085H3.48072H3.48059H3.48046H3.48033H3.4802H3.48006H3.47993H3.4798H3.47967H3.47954H3.4794H3.47927H3.47914H3.47901H3.47888H3.47875H3.47861H3.47848H3.47835H3.47822H3.47809H3.47795H3.47782H3.47769H3.47756H3.47743H3.4773H3.47716H3.47703H3.4769H3.47677H3.47664H3.4765H3.47637H3.47624H3.47611H3.47598H3.47584H3.47571H3.47558H3.47545H3.47532H3.47519H3.47505H3.47492H3.47479H3.47466H3.47453H3.47439H3.47426H3.47413H3.474H3.47387H3.47374H3.4736H3.47347H3.47334H3.47321H3.47308H3.47294H3.47281H3.47268H3.47255H3.47242H3.47229H3.47215H3.47202H3.47189H3.47176H3.47163H3.47149H3.47136H3.47123H3.4711H3.47097H3.47084H3.4707H3.47057H3.47044H3.47031H3.47018H3.47004H3.46991H3.46978H3.46965H3.46952H3.46938H3.46925H3.46912H3.46899H3.46886H3.46873H3.46859H3.46846H3.46833H3.4682H3.46807H3.46793H3.4678H3.46767H3.46754H3.46741H3.46728H3.46714H3.46701H3.46688H3.46675H3.46662H3.46648H3.46635H3.46622H3.46609H3.46596H3.46583H3.46569H3.46556H3.46543H3.4653H3.46517H3.46503H3.4649H3.46477H3.46464H3.46451H3.46438H3.46424H3.46411H3.46398H3.46385H3.46372H3.46358H3.46345H3.46332H3.46319H3.46306H3.46292H3.46279H3.46266H3.46253H3.4624H3.46227H3.46213H3.462H3.46187H3.46174H3.46166C3.45825 10.1118 3.45291 10.1071 3.44633 10.1032C3.43521 10.0965 3.42213 10.0925 3.40725 10.0925C3.39237 10.0925 3.37928 10.0965 3.36816 10.1032C3.3614 10.1072 3.35595 10.112 3.35256 10.1153C3.32498 10.1168 3.30318 10.1246 3.28364 10.1344C3.27439 10.139 3.26528 10.1442 3.25716 10.1489C3.25643 10.1494 3.25571 10.1498 3.25499 10.1502C3.24593 10.1554 3.2372 10.1604 3.22739 10.1653L3.22013 10.1689M3.51975 10.115L3.22013 10.1689M3.22013 10.1689L3.21439 10.1747M3.22013 10.1689L3.21439 10.1747M3.21439 10.1747L3.21424 10.1748C3.19074 10.1983 3.16365 10.2254 3.13752 10.2777L3.1338 10.2851M3.21439 10.1747L3.1338 10.2851M3.1338 10.2851L3.12603 10.2901C3.11898 10.2948 3.11053 10.301 3.10189 10.3097L3.08725 10.3243V10.345V10.3451V10.3453V10.3454V10.3455V10.3457V10.3458V10.3459V10.3461V10.3462V10.3463V10.3465V10.3466V10.3467V10.3469V10.347V10.3471V10.3473V10.3474V10.3475V10.3477V10.3478V10.3479V10.348V10.3482V10.3483V10.3484V10.3486V10.3487V10.3488V10.349V10.3491V10.3492V10.3494V10.3495V10.3496V10.3498V10.3499V10.35V10.3501V10.3503V10.3504V10.3505V10.3507V10.3508V10.3509V10.3511V10.3512V10.3513V10.3515V10.3516V10.3517V10.3518V10.352V10.3521V10.3522V10.3524V10.3525V10.3526V10.3528V10.3529V10.353V10.3532V10.3533V10.3534V10.3535V10.3537V10.3538V10.3539V10.3541V10.3542V10.3543V10.3544V10.3546V10.3547V10.3548V10.355V10.3551V10.3552V10.3553V10.3555V10.3556V10.3557V10.3559V10.356V10.3561V10.3562V10.3564V10.3565V10.3566V10.3568V10.3569V10.357V10.3571V10.3573V10.3574V10.3575V10.3577V10.3578V10.3579V10.358V10.3582V10.3583V10.3584V10.3585V10.3587V10.3588V10.3589V10.359V10.3592V10.3593V10.3594V10.3595V10.3597V10.3598V10.3599V10.36V10.3602V10.3603V10.3604V10.3605V10.3607V10.3608V10.3609V10.361V10.3612V10.3613V10.3614V10.3615V10.3617V10.3618V10.3619V10.362V10.3622V10.3623V10.3624V10.3625V10.3626V10.3628V10.3629V10.363V10.3631V10.3633V10.3634V10.3635V10.3636V10.3637V10.3639V10.364V10.3641V10.3642V10.3643V10.3645V10.3646V10.3647V10.3648V10.3649V10.3651V10.3652V10.3653V10.3654V10.3655V10.3657V10.3658V10.3659V10.366V10.3661V10.3663V10.3664V10.3665V10.3666V10.3667V10.3668V10.367V10.3671V10.3672V10.3673V10.3674V10.3675V10.3677V10.3678V10.3679V10.368V10.3681V10.3682V10.3683V10.3685V10.3686V10.3687V10.3688V10.3689V10.369V10.3691V10.3693V10.3694V10.3695V10.3696V10.3697V10.3698V10.3699V10.37V10.3702V10.3703V10.3704V10.3705V10.3706V10.3707V10.3708V10.3709V10.371V10.3712V10.3713V10.3714V10.3715V10.3716V10.3717V10.3718V10.3719V10.372V10.3721V10.3722V10.3723V10.3725V10.3726V10.3727V10.3728V10.3729V10.373V10.3731V10.3732V10.3733V10.3734V10.3735V10.3736V10.3737V10.3738V10.3739V10.374V10.3741V10.3742V10.3743V10.3744V10.3745V10.3746V10.3748V10.3749V10.375V10.3751V10.3752V10.3753V10.3754V10.3755V10.3756V10.3757V10.3758V10.3759V10.376V10.3761V10.3762V10.3763V10.3763V10.3764V10.3765V10.3766V10.3767V10.3768V10.3769V10.377V10.3771V10.3772V10.3773V10.3774V10.3775V10.3776V10.3777V10.3778V10.3779V10.378V10.3781V10.3782V10.3783V10.3783V10.3784V10.3785V10.3786V10.3787V10.3788V10.3789V10.379V10.3791V10.3792V10.3793V10.3793V10.3794V10.3795V10.3796V10.3797V10.3798V10.3799V10.38V10.38V10.3801V10.3802V10.3803V10.3804V10.3805V10.3806V10.3806V10.3807V10.3808V10.3809V10.381V10.3811V10.3811V10.3812V10.3813V10.3814V10.3815V10.3816V10.3816V10.3817V10.3818V10.3819V10.382V10.382V10.3821V10.3822V10.3823V10.3823V10.3824V10.3825V10.3826V10.3827V10.3827V10.3828V10.3829V10.383V10.383V10.3831V10.3832V10.3833V10.3833V10.3834V10.3835V10.3835V10.3836V10.3837V10.3838V10.3838V10.3839V10.384V10.384V10.3841V10.3842V10.3843V10.3843V10.3844V10.3845V10.3845V10.3846V10.3847V10.3847V10.3848V10.3849V10.3849V10.385V10.3851V10.3851V10.3852V10.3852V10.3853V10.3854V10.3854V10.3855V10.3856V10.3856V10.3857V10.3857V10.3858V10.3859V10.3859V10.386V10.386V10.3861V10.3862V10.3862V10.3863V10.3863V10.3864V10.3864V10.3865V10.3865V10.3866V10.3867V10.3867V10.3868V10.3868V10.3869V10.3869V10.387V10.387V10.3871V10.3871V10.3872V10.3872V10.3873V10.3873V10.3874V10.3874V10.3875V10.3875V10.3876V10.3876V10.3877V10.3877V10.3877V10.3878V10.3878V10.3879V10.3879V10.388V10.388V10.3881V10.3881V10.3881V10.3882V10.3882V10.3883V10.3883V10.3883V10.3884V10.3884C3.08717 10.3886 3.08706 10.389 3.08691 10.3893C3.08589 10.3921 3.08432 10.3953 3.08127 10.4014C3.08116 10.4016 3.08104 10.4019 3.08091 10.4021C3.07833 10.4073 3.07449 10.415 3.07145 10.4231C3.06817 10.4318 3.06475 10.4437 3.06475 10.4575H3.06469L3.0648 10.4598C3.20078 13.3835 5.19502 15.9443 8.00545 16.7829L8.01245 16.785H8.01937C8.01907 16.785 8.0212 16.7852 8.02698 16.7868C8.03312 16.7884 8.04018 16.7908 8.04893 16.7937C8.05705 16.7964 8.06687 16.7997 8.0762 16.8022C8.08486 16.8046 8.09718 16.8075 8.10975 16.8075H8.10975H8.10975H8.10976H8.10976H8.10977H8.10977H8.10977H8.10978H8.10978H8.10979H8.10979H8.1098H8.1098H8.10981H8.10981H8.10982H8.10982H8.10983H8.10984H8.10984H8.10985H8.10985H8.10986H8.10986H8.10986H8.10987H8.10987H8.10988H8.10988H8.10989H8.10989H8.10989H8.1099H8.1099H8.10991H8.10991H8.10992H8.10992H8.10993H8.10993H8.10994H8.10995H8.10995H8.10996H8.10996H8.10997H8.10998H8.10998H8.10999H8.10999H8.11H8.11001H8.11001H8.11002H8.11003H8.11004H8.11004H8.11005H8.11006H8.11007H8.11007H8.11008H8.11009H8.1101H8.11011H8.11011H8.11012H8.11013H8.11014H8.11015H8.11016H8.11017H8.11018H8.11019H8.1102H8.11021H8.11022H8.11023H8.11024H8.11025H8.11026H8.11027H8.11028H8.11029H8.1103H8.11031H8.11032H8.11033H8.11035H8.11036H8.11037H8.11038H8.11039H8.11041H8.11042H8.11043H8.11045H8.11046H8.11047H8.11049H8.1105H8.11051H8.11053H8.11054H8.11056H8.11057H8.11058H8.1106H8.11061H8.11063H8.11064H8.11066H8.11068H8.11069H8.11071H8.11072H8.11074H8.11076H8.11077H8.11079H8.11081H8.11083H8.11084H8.11086H8.11088H8.1109H8.11091H8.11093H8.11095H8.11097H8.11099H8.11101H8.11103H8.11105H8.11107H8.11109H8.11111H8.11113H8.11115H8.11117H8.11119H8.11121H8.11123H8.11125H8.11128H8.1113H8.11132H8.11134H8.11137H8.11139H8.11141H8.11144H8.11146H8.11148H8.11151H8.11153H8.11156H8.11158H8.11161H8.11163H8.11166H8.11168H8.11171H8.11173H8.11176H8.11179H8.11181H8.11184H8.11187H8.11189H8.11192H8.11195H8.11198H8.11201H8.11203H8.11206H8.11209H8.11212H8.11215H8.11218H8.11221H8.11224H8.11227H8.1123H8.11233H8.11237H8.1124H8.11243H8.11246H8.11249H8.11253H8.11256H8.11259H8.11263H8.11266H8.11269H8.11273H8.11276H8.1128H8.11283H8.11287H8.1129H8.11294H8.11297H8.11301H8.11305H8.11308H8.11312H8.11316H8.11319H8.11323H8.11327H8.11331H8.11335H8.11339H8.11343H8.11347H8.11351H8.11355H8.11359H8.11363H8.11367H8.11371H8.11375H8.11379H8.11383H8.11388H8.11392H8.11396H8.11401H8.11405H8.11409H8.11414H8.11418H8.11423H8.11427H8.11432H8.11436H8.11441H8.11446H8.1145H8.11455H8.1146H8.11464H8.11469H8.11474H8.11479H8.11484H8.11489H8.11494H8.11499H8.11504H8.11509H8.11514H8.11519H8.11524H8.11529H8.11534H8.1154H8.11545H8.1155H8.11555H8.11561H8.11566H8.11572H8.11577H8.11583H8.11588H8.11594H8.11599H8.11605H8.11611H8.11616H8.11622H8.11628H8.11634H8.11639H8.11645H8.11651H8.11657H8.11663H8.11669H8.11675H8.11681H8.11687H8.11693H8.117H8.11706H8.11712H8.11718H8.11725H8.11731H8.11737H8.11744H8.1175H8.11757H8.11763H8.1177H8.11776H8.11783H8.1179H8.11797H8.11803H8.1181H8.11817H8.11824H8.11831H8.11838H8.11845H8.11852H8.11859H8.11866H8.11873H8.1188H8.11887H8.11895H8.11902H8.11909H8.11916H8.11924H8.11931H8.11939H8.11946H8.11954H8.11961H8.11969H8.11977H8.11984H8.11992H8.12H8.12008H8.12016H8.12024H8.12032H8.1204H8.12048H8.12056H8.12064H8.12072H8.1208H8.12088H8.12097H8.12105H8.12113H8.12122H8.1213H8.12139H8.12147H8.12156H8.12164H8.12173H8.12181H8.1219H8.12199H8.12208H8.12217H8.12226H8.12234H8.12243H8.12252H8.12262H8.12271H8.1228H8.12289H8.12298H8.12308H8.12317H8.12326H8.12336H8.12345H8.12355H8.12364H8.12374H8.12383H8.12393H8.12403H8.12412H8.12422H8.12432H8.12442H8.12452H8.12462H8.12472H8.12482H8.12492H8.12502H8.12512H8.12523H8.12533H8.12543H8.12554H8.12564H8.12575H8.12585H8.12596H8.12606H8.12617H8.12628H8.12639H8.12649H8.1266H8.12671H8.12682H8.12693H8.12704H8.12715H8.12726H8.12737H8.12749H8.1276H8.12771H8.12783H8.12794H8.12806H8.12817H8.12829H8.1284H8.12852H8.12864H8.12875H8.12887H8.12899H8.12911H8.12923H8.12935H8.12947H8.12959H8.12971H8.12983H8.12996H8.13008H8.1302H8.13033H8.13045H8.13058H8.1307H8.13083H8.13095H8.13108H8.13121H8.13134H8.13146H8.13159H8.13172H8.13185H8.13198H8.13211H8.13225H8.15475C8.16912 16.8075 8.18322 16.8038 8.19549 16.7956C8.20663 16.7882 8.21376 16.7788 8.21822 16.7704L8.26711 16.746L8.33461 16.7122L8.34186 16.7086L8.3476 16.7029C8.36463 16.6858 8.37331 16.6685 8.37895 16.6572L8.37947 16.6561C8.38508 16.6449 8.38766 16.6403 8.3926 16.6354L8.40725 16.6207V16.6139L8.41346 16.61C8.42052 16.6053 8.42896 16.599 8.4376 16.5904L8.45225 16.5757V16.555V16.5549V16.5548V16.5546V16.5545V16.5544V16.5542V16.5541V16.554V16.5538V16.5537V16.5536V16.5534V16.5533V16.5532V16.553V16.5529V16.5528V16.5526V16.5525V16.5524V16.5522V16.5521V16.552V16.5519V16.5517V16.5516V16.5515V16.5513V16.5512V16.5511V16.5509V16.5508V16.5507V16.5505V16.5504V16.5503V16.5501V16.55V16.5499V16.5498V16.5496V16.5495V16.5494V16.5492V16.5491V16.549V16.5488V16.5487V16.5486V16.5484V16.5483V16.5482V16.5481V16.5479V16.5478V16.5477V16.5475V16.5474V16.5473V16.5471V16.547V16.5469V16.5468V16.5466V16.5465V16.5464V16.5462V16.5461V16.546V16.5458V16.5457V16.5456V16.5455V16.5453V16.5452V16.5451V16.5449V16.5448V16.5447V16.5446V16.5444V16.5443V16.5442V16.544V16.5439V16.5438V16.5437V16.5435V16.5434V16.5433V16.5431V16.543V16.5429V16.5428V16.5426V16.5425V16.5424V16.5423V16.5421V16.542V16.5419V16.5417V16.5416V16.5415V16.5414V16.5412V16.5411V16.541V16.5409V16.5407V16.5406V16.5405V16.5404V16.5402V16.5401V16.54V16.5399V16.5397V16.5396V16.5395V16.5394V16.5392V16.5391V16.539V16.5389V16.5387V16.5386V16.5385V16.5384V16.5382V16.5381V16.538V16.5379V16.5378V16.5376V16.5375V16.5374V16.5373V16.5371V16.537V16.5369V16.5368V16.5367V16.5365V16.5364V16.5363V16.5362V16.536V16.5359V16.5358V16.5357V16.5356V16.5354V16.5353V16.5352V16.5351V16.535V16.5348V16.5347V16.5346V16.5345V16.5344V16.5343V16.5341V16.534V16.5339V16.5338V16.5337V16.5335V16.5334V16.5333V16.5332V16.5331V16.533V16.5328V16.5327V16.5326V16.5325V16.5324V16.5323V16.5321V16.532V16.5319V16.5318V16.5317V16.5316V16.5315V16.5313V16.5312V16.5311V16.531V16.5309V16.5308V16.5307V16.5306V16.5304V16.5303V16.5302V16.5301V16.53V16.5299V16.5298V16.5297V16.5295V16.5294V16.5293V16.5292V16.5291V16.529V16.5289V16.5288V16.5287V16.5286V16.5284V16.5283V16.5282V16.5281V16.528V16.5279V16.5278V16.5277V16.5276V16.5275V16.5274V16.5273V16.5272V16.5271V16.5269V16.5268V16.5267V16.5266V16.5265V16.5264V16.5263V16.5262V16.5261V16.526V16.5259V16.5258V16.5257V16.5256V16.5255V16.5254V16.5253V16.5252V16.5251V16.525V16.5249V16.5248V16.5247V16.5246V16.5245V16.5244V16.5243V16.5242V16.5241V16.524V16.5239V16.5238V16.5237V16.5236V16.5235V16.5234V16.5233V16.5232V16.5231V16.523V16.5229V16.5228V16.5227V16.5226V16.5225V16.5224V16.5223V16.5222V16.5222V16.5221V16.522V16.5219V16.5218V16.5217V16.5216V16.5215V16.5214V16.5213V16.5212V16.5211V16.5211V16.521V16.5209V16.5208V16.5207V16.5206V16.5205V16.5204V16.5203V16.5203V16.5202V16.5201V16.52V16.5199V16.5198V16.5197V16.5196V16.5196V16.5195V16.5194V16.5193V16.5192V16.5191V16.5191V16.519V16.5189V16.5188V16.5187V16.5186V16.5186V16.5185V16.5184V16.5183V16.5182V16.5182V16.5181V16.518V16.5179V16.5178V16.5178V16.5177V16.5176V16.5175V16.5175V16.5174V16.5173V16.5172V16.5172V16.5171V16.517V16.5169V16.5169V16.5168V16.5167V16.5166V16.5166V16.5165V16.5164V16.5163V16.5163V16.5162V16.5161V16.5161V16.516V16.5159V16.5159V16.5158V16.5157V16.5156V16.5156V16.5155V16.5154V16.5154V16.5153V16.5152V16.5152V16.5151V16.515V16.515V16.5149V16.5149V16.5148V16.5147V16.5147V16.5146V16.5145V16.5145V16.5144V16.5144V16.5143V16.5142V16.5142V16.5141V16.5141V16.514V16.5139V16.5139V16.5138V16.5138V16.5137V16.5137V16.5136V16.5135V16.5135V16.5134V16.5134V16.5133V16.5133V16.5132V16.5132V16.5131V16.5131V16.513V16.513V16.5129V16.5129V16.5128V16.5128V16.5127V16.5127V16.5126V16.5126V16.5125V16.5125V16.5124V16.5124V16.5123V16.5123V16.5122V16.5122V16.5122V16.5121V16.5121V16.512V16.512V16.5119V16.5119V16.5119V16.5118V16.5118V16.5117V16.5117V16.5117V16.5116L3.1338 10.2851Z" fill="#6B7280" stroke="#6B7280" stroke-width="0.1"/>
<path d="M9.99982 12.4149C9.27982 12.4149 8.69482 11.8299 8.69482 11.1099C8.69482 10.3899 9.27982 9.80493 9.99982 9.80493C10.7198 9.80493 11.3048 10.3899 11.3048 11.1099C11.3048 11.8299 10.7198 12.4149 9.99982 12.4149Z" fill="#6B7280"/>
</svg>
