<svg width="20" height="21" viewBox="0 0 20 21" fill="none" xmlns="http://www.w3.org/2000/svg">
<path d="M16.0953 2.12C15.0454 2.12 14.1905 2.97485 14.1905 4.02475C14.1905 4.94435 14.8458 5.71389 15.7143 5.89064V9.73903H10.381V5.89067C11.2495 5.71392 11.9048 4.94439 11.9048 4.02478C11.9048 2.97485 11.0499 2.12 10 2.12C8.95011 2.12 8.09525 2.97485 8.09525 4.02475C8.09525 4.94435 8.7505 5.71389 9.61907 5.89064V9.73903H4.28571V5.89067C5.15429 5.71392 5.80954 4.94439 5.80954 4.02478C5.80954 2.97485 4.95468 2.12 3.90475 2.12C2.85482 2.12 2 2.97485 2 4.02475C2 4.94435 2.65525 5.71389 3.52382 5.89064V14.3493C2.65525 14.5261 2 15.2956 2 16.2152C2 17.2651 2.85486 18.12 3.90475 18.12C4.95464 18.12 5.8095 17.2651 5.8095 16.2152C5.8095 15.2956 5.15425 14.5261 4.28568 14.3494V10.501H9.619V14.3494C8.75043 14.5261 8.09518 15.2956 8.09518 16.2152C8.09525 17.2651 8.95011 18.12 10 18.12C11.0499 18.12 11.9048 17.2651 11.9048 16.2152C11.9048 15.2956 11.2495 14.5261 10.3809 14.3494V10.501H16.0952C16.3055 10.501 16.4762 10.3303 16.4762 10.12V5.89067C17.3448 5.71389 18 4.94439 18 4.02475C18 2.97485 17.1451 2.12 16.0953 2.12ZM5.04761 16.2152C5.04761 16.8454 4.53486 17.3581 3.90475 17.3581C3.27464 17.3581 2.76189 16.8454 2.76189 16.2152C2.76189 15.5851 3.27464 15.0724 3.90475 15.0724C4.53486 15.0724 5.04761 15.5851 5.04761 16.2152ZM3.90475 5.1676C3.27464 5.1676 2.76189 4.65485 2.76189 4.02475C2.76189 3.39464 3.27464 2.88189 3.90475 2.88189C4.53486 2.88189 5.04761 3.39464 5.04761 4.02475C5.04761 4.65485 4.53486 5.1676 3.90475 5.1676ZM11.1429 16.2152C11.1429 16.8454 10.6301 17.3581 10 17.3581C9.36989 17.3581 8.85714 16.8454 8.85714 16.2152C8.85714 15.5851 9.36989 15.0724 10 15.0724C10.6301 15.0724 11.1429 15.5851 11.1429 16.2152ZM10 5.1676C9.36989 5.1676 8.85714 4.65485 8.85714 4.02475C8.85714 3.39464 9.36989 2.88189 10 2.88189C10.6301 2.88189 11.1429 3.39464 11.1429 4.02475C11.1429 4.65485 10.6301 5.1676 10 5.1676ZM16.0953 5.1676C15.4651 5.1676 14.9524 4.65485 14.9524 4.02475C14.9524 3.39464 15.4651 2.88189 16.0953 2.88189C16.7254 2.88189 17.2381 3.39464 17.2381 4.02475C17.2381 4.65485 16.7253 5.1676 16.0953 5.1676Z" fill="#6B7280"/>
</svg>
