<svg width="16" height="16" viewBox="0 0 16 16" fill="none" xmlns="http://www.w3.org/2000/svg">
<path d="M1.33398 12.4446V8.00016C1.33398 6.23205 2.03636 4.53636 3.28661 3.28612C4.53685 2.03588 6.23254 1.3335 8.00065 1.3335C9.76876 1.3335 11.4645 2.03588 12.7147 3.28612C13.9649 4.53636 14.6673 6.23205 14.6673 8.00016V12.4446M14.6673 13.1853C14.6673 13.5783 14.5112 13.9551 14.2334 14.2329C13.9556 14.5107 13.5788 14.6668 13.1858 14.6668H12.4451C12.0522 14.6668 11.6754 14.5107 11.3975 14.2329C11.1197 13.9551 10.9636 13.5783 10.9636 13.1853V10.9631C10.9636 10.5702 11.1197 10.1934 11.3975 9.91556C11.6754 9.63773 12.0522 9.48164 12.4451 9.48164H14.6673V13.1853ZM1.33398 13.1853C1.33398 13.5783 1.49007 13.9551 1.7679 14.2329C2.04573 14.5107 2.42255 14.6668 2.81547 14.6668H3.55621C3.94912 14.6668 4.32594 14.5107 4.60377 14.2329C4.8816 13.9551 5.03769 13.5783 5.03769 13.1853V10.9631C5.03769 10.5702 4.8816 10.1934 4.60377 9.91556C4.32594 9.63773 3.94912 9.48164 3.55621 9.48164H1.33398V13.1853Z" stroke="#07F668" stroke-width="1.5" stroke-linecap="round" stroke-linejoin="round"/>
</svg>
