<svg width="20" height="21" viewBox="0 0 20 21" fill="none" xmlns="http://www.w3.org/2000/svg">
<path d="M2 6.86999C2 5.35121 3.23122 4.12 4.75 4.12H15.25C16.7688 4.12 18 5.35121 18 6.87V13.37C18 14.8888 16.7688 16.12 15.25 16.12H4.75C3.23122 16.12 2 14.8888 2 13.37V6.86999ZM4.75 5.12C3.7835 5.12 3 5.9035 3 6.86999V13.37C3 14.3365 3.7835 15.12 4.75 15.12H15.25C16.2165 15.12 17 14.3365 17 13.37V6.87C17 5.9035 16.2165 5.12 15.25 5.12H4.75ZM4 11.62C4 11.3439 4.22386 11.12 4.5 11.12H11.5C11.7761 11.12 12 11.3439 12 11.62C12 11.8961 11.7761 12.12 11.5 12.12H4.5C4.22386 12.12 4 11.8961 4 11.62ZM4.5 13.12C4.22386 13.12 4 13.3439 4 13.62C4 13.8961 4.22386 14.12 4.5 14.12H7.5C7.77614 14.12 8 13.8961 8 13.62C8 13.3439 7.77614 13.12 7.5 13.12H4.5ZM13 11.62C13 11.3439 13.2239 11.12 13.5 11.12H15.5C15.7761 11.12 16 11.3439 16 11.62C16 11.8961 15.7761 12.12 15.5 12.12H13.5C13.2239 12.12 13 11.8961 13 11.62ZM9.5 13.12C9.22386 13.12 9 13.3439 9 13.62C9 13.8961 9.22386 14.12 9.5 14.12H15.5C15.7761 14.12 16 13.8961 16 13.62C16 13.3439 15.7761 13.12 15.5 13.12H9.5Z" fill="#6B7280"/>
</svg>
