<svg width="21" height="21" viewBox="0 0 21 21" fill="none" xmlns="http://www.w3.org/2000/svg">
<g clip-path="url(#clip0_6842_12080)">
<path d="M20.3359 10.0449C20.3359 4.52249 15.8584 0.0449219 10.3359 0.0449219C4.81351 0.0449219 0.335938 4.52249 0.335938 10.0449C0.335938 15.0358 3.99224 19.173 8.77355 19.924V12.9362H6.23385V10.0449H8.77355V7.84131C8.77355 5.33531 10.267 3.95014 12.5508 3.95014C13.6449 3.95014 14.7896 4.14561 14.7896 4.14561V6.60658H13.5282C12.2864 6.60658 11.8983 7.37722 11.8983 8.16892V10.0449H14.6715L14.2285 12.9362H11.8983V19.924C16.6796 19.1745 20.3359 15.0372 20.3359 10.0449Z" fill="#07F668"/>
</g>
<defs>
<clipPath id="clip0_6842_12080">
<rect width="20" height="20" fill="white" transform="translate(0.335938 0.0449219)"/>
</clipPath>
</defs>
</svg>
