<svg width="21" height="21" viewBox="0 0 21 21" fill="none" xmlns="http://www.w3.org/2000/svg">
<g clip-path="url(#clip0_6842_12092)">
<path fill-rule="evenodd" clip-rule="evenodd" d="M10.3359 0.0449219C4.81344 0.0449219 0.335938 4.52242 0.335938 10.0449C0.335938 15.5675 4.81344 20.0449 10.3359 20.0449C15.8585 20.0449 20.3359 15.5675 20.3359 10.0449C20.3359 4.52242 15.8585 0.0449219 10.3359 0.0449219ZM15.1445 5.70565C15.674 5.85759 16.0911 6.30533 16.2326 6.87384C16.4898 7.90431 16.4898 10.0542 16.4898 10.0542C16.4898 10.0542 16.4898 12.2042 16.2326 13.2347C16.0911 13.8032 15.674 14.2322 15.1445 14.3842C14.1846 14.6603 10.3359 14.6603 10.3359 14.6603C10.3359 14.6603 6.48724 14.6603 5.5274 14.3842C4.99788 14.2322 4.58082 13.8032 4.43928 13.2347C4.18209 12.2042 4.18209 10.0542 4.18209 10.0542C4.18209 10.0542 4.18209 7.90431 4.43928 6.87384C4.58082 6.30533 4.99788 5.85761 5.5274 5.70565C6.48724 5.42954 10.3359 5.42954 10.3359 5.42954C10.3359 5.42954 14.1846 5.42954 15.1445 5.70565ZM12.2939 10.0543L9.07717 8.10223V12.0062L12.2939 10.0543Z" fill="#07F668"/>
</g>
<defs>
<clipPath id="clip0_6842_12092">
<rect width="20" height="20" fill="white" transform="translate(0.335938 0.0449219)"/>
</clipPath>
</defs>
</svg>
