<svg width="21" height="21" viewBox="0 0 21 21" fill="none" xmlns="http://www.w3.org/2000/svg">
<g clip-path="url(#clip0_6842_12090)">
<path d="M12.6935 5.29659C12.0785 5.26825 11.8935 5.26325 10.3359 5.26325C8.77848 5.26325 8.59424 5.26909 7.97927 5.29659C6.39677 5.36909 5.66011 6.11825 5.58761 7.68825C5.56011 8.30323 5.55344 8.48746 5.55344 10.0449C5.55344 11.6025 5.56011 11.7866 5.58761 12.4025C5.66011 13.9682 6.39344 14.7216 7.97927 14.7941C8.59348 14.8216 8.77848 14.8282 10.3359 14.8282C11.8942 14.8282 12.0785 14.8225 12.6935 14.7941C14.2759 14.7224 15.0118 13.9708 15.0851 12.4025C15.1126 11.7875 15.1185 11.6025 15.1185 10.0449C15.1185 8.48746 15.1126 8.30323 15.0851 7.68825C15.0118 6.11909 14.2742 5.36909 12.6935 5.29659ZM10.3359 13.0408C8.68178 13.0408 7.34011 11.6999 7.34011 10.0449C7.34011 8.39077 8.68178 7.04992 10.3359 7.04992C11.9901 7.04992 13.3318 8.39077 13.3318 10.0449C13.3318 11.6991 11.9901 13.0408 10.3359 13.0408ZM13.4501 7.63159C13.0635 7.63159 12.7501 7.31825 12.7501 6.93159C12.7501 6.54492 13.0635 6.23159 13.4501 6.23159C13.8368 6.23159 14.1501 6.54492 14.1501 6.93159C14.1501 7.31742 13.8368 7.63159 13.4501 7.63159ZM12.2801 10.0449C12.2801 11.1191 11.4092 11.9891 10.3359 11.9891C9.26263 11.9891 8.39178 11.1191 8.39178 10.0449C8.39178 8.97077 9.26263 8.10077 10.3359 8.10077C11.4092 8.10077 12.2801 8.97077 12.2801 10.0449ZM10.3359 0.0449219C4.81344 0.0449219 0.335938 4.52242 0.335938 10.0449C0.335938 15.5675 4.81344 20.0449 10.3359 20.0449C15.8585 20.0449 20.3359 15.5675 20.3359 10.0449C20.3359 4.52242 15.8585 0.0449219 10.3359 0.0449219ZM16.1342 12.4499C16.0385 14.5708 14.8576 15.7458 12.7418 15.8432C12.1192 15.8716 11.9201 15.8782 10.3359 15.8782C8.75178 15.8782 8.55348 15.8716 7.93094 15.8432C5.81094 15.7458 4.63511 14.5691 4.53761 12.4499C4.50927 11.8282 4.50261 11.6291 4.50261 10.0449C4.50261 8.46077 4.50927 8.26246 4.53761 7.63992C4.63511 5.51992 5.81177 4.34409 7.93094 4.24742C8.55348 4.21825 8.75178 4.21159 10.3359 4.21159C11.9201 4.21159 12.1192 4.21825 12.7418 4.24742C14.8626 4.34492 16.0392 5.52409 16.1342 7.63992C16.1626 8.26246 16.1692 8.46077 16.1692 10.0449C16.1692 11.6291 16.1626 11.8282 16.1342 12.4499Z" fill="#07F668"/>
</g>
<defs>
<clipPath id="clip0_6842_12090">
<rect width="20" height="20" fill="white" transform="translate(0.335938 0.0449219)"/>
</clipPath>
</defs>
</svg>
