<svg width="21" height="21" viewBox="0 0 21 21" fill="none" xmlns="http://www.w3.org/2000/svg">
<g clip-path="url(#clip0_6842_12082)">
<path d="M0.335938 10.0449C0.335938 4.52207 4.81309 0.0449219 10.3359 0.0449219C15.8588 0.0449219 20.3359 4.52207 20.3359 10.0449C20.3359 15.5678 15.8588 20.0449 10.3359 20.0449C4.81309 20.0449 0.335938 15.5678 0.335938 10.0449Z" fill="#07F668"/>
<path d="M6.48965 11.9891C6.56924 11.3255 6.83949 10.954 7.34876 10.5732C8.07744 10.0574 8.98767 10.3492 8.98767 10.3492V8.61831C9.20895 8.61261 9.43033 8.62582 9.6492 8.65778V10.8852C9.6492 10.8852 8.73925 10.5935 8.01057 11.1095C7.50157 11.4901 7.23077 11.8619 7.15146 12.5254C7.14898 12.8857 7.21612 13.3567 7.52534 13.7639C7.44888 13.7245 7.37096 13.6795 7.29156 13.629C6.61041 13.1684 6.48634 12.4774 6.48965 11.9891ZM13.4076 5.41796C12.9063 4.86483 12.7167 4.30637 12.6482 3.91406H13.2788C13.2788 3.91406 13.1531 4.94271 14.0694 5.95428L14.0821 5.96789C13.8351 5.81146 13.6086 5.62681 13.4076 5.41796ZM16.4452 6.98613V9.16877C16.4452 9.16877 15.6406 9.13703 15.0451 8.98448C14.2136 8.77112 13.6792 8.44389 13.6792 8.44389C13.6792 8.44389 13.31 8.21053 13.2802 8.19426V12.7014C13.2802 12.9524 13.2119 13.5791 13.0038 14.1018C12.7322 14.7856 12.313 15.2345 12.2359 15.3262C12.2359 15.3262 11.7261 15.933 10.8266 16.3415C10.0159 16.7101 9.30406 16.7008 9.09129 16.7101C9.09129 16.7101 7.8608 16.7592 6.75355 16.0346C6.51411 15.8749 6.29061 15.694 6.08594 15.4943L6.09146 15.4983C7.19899 16.2229 8.42921 16.1738 8.42921 16.1738C8.64226 16.1645 9.35408 16.1738 10.1646 15.8052C11.0632 15.3966 11.5738 14.7899 11.5738 14.7899C11.6501 14.6982 12.0712 14.2493 12.3418 13.5652C12.5493 13.0428 12.6181 12.4158 12.6181 12.1648V7.6582C12.6479 7.67474 13.0168 7.9081 13.0168 7.9081C13.0168 7.9081 13.5515 8.2356 14.383 8.44869C14.9788 8.60124 15.7832 8.63297 15.7832 8.63297V6.92266C16.0584 6.9848 16.293 7.0016 16.4452 6.98613Z" fill="#EE1D52"/>
<path d="M15.7908 6.92266V8.63244C15.7908 8.63244 14.9864 8.6007 14.3907 8.44815C13.5592 8.2348 13.0245 7.90756 13.0245 7.90756C13.0245 7.90756 12.6556 7.6742 12.6258 7.65767V12.1654C12.6258 12.4163 12.5575 13.0433 12.3494 13.5658C12.0778 14.2499 11.6586 14.6987 11.5815 14.7904C11.5815 14.7904 11.0714 15.3972 10.1722 15.8058C9.36176 16.1743 8.64993 16.165 8.43688 16.1743C8.43688 16.1743 7.20667 16.2234 6.09914 15.4988L6.09361 15.4948C5.97668 15.3808 5.86661 15.2604 5.76395 15.1342C5.41053 14.7003 5.19389 14.1872 5.13945 14.0408C5.13935 14.0401 5.13935 14.0395 5.13945 14.0389C5.05185 13.7845 4.86782 13.1735 4.89296 12.5817C4.93745 11.5376 5.30221 10.8967 5.39865 10.7361C5.65406 10.2983 5.98625 9.9066 6.38044 9.57841C6.72829 9.29521 7.12257 9.06989 7.5471 8.91167C8.00604 8.72591 8.49748 8.62634 8.99507 8.61831V10.3492C8.99507 10.3492 8.08484 10.0585 7.35644 10.5732C6.84716 10.954 6.57691 11.3255 6.49733 11.9891C6.49401 12.4774 6.61809 13.1684 7.29868 13.6293C7.37808 13.6799 7.45601 13.7249 7.53246 13.7642C7.65136 13.9198 7.79608 14.0555 7.96077 14.1656C8.62562 14.5894 9.1827 14.619 9.89507 14.3437C10.3701 14.1597 10.7277 13.745 10.8934 13.2855C10.9976 12.9985 10.9962 12.7097 10.9962 12.411V3.91406H12.6542C12.7227 4.30637 12.9123 4.86483 13.4136 5.41796C13.6146 5.62681 13.8411 5.81146 14.0881 5.96789C14.161 6.04389 14.5341 6.41967 15.013 6.65036C15.2606 6.7696 15.5216 6.86097 15.7908 6.92266Z" fill="#090806"/>
<path d="M4.47656 13.5098V13.5111L4.5177 13.6234C4.51298 13.6103 4.49769 13.5706 4.47656 13.5098Z" fill="#69C9D0"/>
<path d="M7.54328 8.91211C7.11875 9.07032 6.72447 9.29565 6.37662 9.57885C5.9823 9.90778 5.65019 10.3003 5.3951 10.739C5.29866 10.899 4.93391 11.5404 4.88942 12.5845C4.86427 13.1763 5.04831 13.7873 5.1359 14.0417C5.13581 14.0424 5.13581 14.043 5.1359 14.0436C5.19117 14.1887 5.40698 14.7018 5.76041 15.1371C5.86307 15.2632 5.97314 15.3836 6.09007 15.4976C5.71542 15.2475 5.38129 14.9452 5.0986 14.6005C4.74822 14.1703 4.53213 13.6625 4.47575 13.5126C4.47569 13.5115 4.47569 13.5105 4.47575 13.5094V13.5075C4.38788 13.2534 4.20329 12.6421 4.22899 12.0495C4.27348 11.0054 4.63824 10.3645 4.73467 10.204C4.98969 9.76528 5.32181 9.37272 5.7162 9.04386C6.06398 8.76056 6.45827 8.53522 6.88286 8.37712C7.14769 8.27107 7.42358 8.19283 7.70576 8.14376C8.13102 8.07211 8.56536 8.0659 8.99263 8.12536V8.61874C8.49457 8.62661 8.00265 8.72618 7.54328 8.91211Z" fill="#69C9D0"/>
<path d="M12.6541 3.91452H10.9961V12.4117C10.9961 12.7104 10.9961 12.9984 10.8933 13.2862C10.7259 13.7455 10.3697 14.1602 9.89497 14.3442C9.18232 14.6205 8.62524 14.5898 7.96067 14.166C7.79569 14.0564 7.6506 13.9212 7.53125 13.766C8.09745 14.0575 8.60424 14.0524 9.23205 13.8092C9.70651 13.6252 10.0633 13.2105 10.2302 12.7509C10.3346 12.464 10.3332 12.1752 10.3332 11.8767V3.37793H12.6226C12.6226 3.37793 12.5969 3.58915 12.6541 3.91452ZM15.7893 6.45026V6.92311C15.5206 6.86133 15.26 6.76997 15.0129 6.65082C14.534 6.42013 14.1609 6.04435 14.088 5.96834C14.1726 6.02198 14.2605 6.07078 14.351 6.11449C14.9333 6.39506 15.5067 6.4788 15.7893 6.45026Z" fill="#69C9D0"/>
</g>
<defs>
<clipPath id="clip0_6842_12082">
<rect width="20" height="20" fill="white" transform="translate(0.335938 0.0449219)"/>
</clipPath>
</defs>
</svg>
