<svg width="21" height="21" viewBox="0 0 21 21" fill="none" xmlns="http://www.w3.org/2000/svg">
<rect y="0.0449219" width="20" height="20" rx="10" fill="#07F668"/>
<path d="M7.58468 5.53973C7.58468 6.20727 7.00608 6.74841 6.29234 6.74841C5.5786 6.74841 5 6.20727 5 5.53973C5 4.8722 5.5786 4.33105 6.29234 4.33105C7.00608 4.33105 7.58468 4.8722 7.58468 5.53973Z" fill="#141414"/>
<path d="M5.17673 7.63684H7.38586V14.3311H5.17673V7.63684Z" fill="#141414"/>
<path d="M10.9426 7.63684H8.73343V14.3311H10.9426C10.9426 14.3311 10.9426 12.2236 10.9426 10.906C10.9426 10.1151 11.2126 9.32072 12.2901 9.32072C13.5079 9.32072 13.5005 10.3557 13.4949 11.1576C13.4874 12.2057 13.5052 13.2752 13.5052 14.3311H15.7143V10.798C15.6956 8.54204 15.1077 7.50254 13.1738 7.50254C12.0253 7.50254 11.3134 8.02395 10.9426 8.49569V7.63684Z" fill="#141414"/>
</svg>
