<svg width="20" height="21" viewBox="0 0 20 21" fill="none" xmlns="http://www.w3.org/2000/svg">
<path d="M9.99996 1.12C5.03879 1.12 1 5.15879 1 10.12C1 15.0811 5.03879 19.1199 9.99996 19.1199C14.9611 19.1199 18.9999 15.0811 18.9999 10.12C18.9999 5.15879 14.9611 1.12 9.99996 1.12ZM9.99996 18.0625C5.62421 18.0625 2.05744 14.5022 2.05744 10.12C2.05744 5.73773 5.62401 2.17743 9.99996 2.17743C14.3759 2.17743 17.9425 5.744 17.9425 10.12C17.9425 14.4959 14.3759 18.0625 9.99996 18.0625Z" fill="#6B7280"/>
<path d="M9.99987 8.26904C8.97631 8.26904 8.14893 9.10118 8.14893 10.12C8.14893 11.138 8.98106 11.9709 9.99987 11.9709C11.0179 11.9709 11.8508 11.1388 11.8508 10.12C11.8508 9.10197 11.0234 8.26904 9.99987 8.26904ZM9.99987 10.9134C9.56085 10.9134 9.20648 10.5591 9.20648 10.1201C9.20648 9.68105 9.56085 9.32668 9.99987 9.32668C10.4389 9.32668 10.7932 9.68105 10.7932 10.1201C10.7932 10.5591 10.4389 10.9134 9.99987 10.9134Z" fill="#6B7280"/>
<path d="M13.7744 10.12C13.7744 10.4127 14.0109 10.6484 14.3028 10.6484H15.8215C16.1142 10.6484 16.3499 10.4119 16.3499 10.12C16.3499 9.82736 16.1134 9.59163 15.8215 9.59163H14.3028C14.0101 9.59163 13.7744 9.82736 13.7744 10.12Z" fill="#6B7280"/>
<path d="M6.22493 10.12C6.22493 9.82736 5.98841 9.59163 5.69653 9.59163H4.17781C3.88514 9.59163 3.64941 9.82815 3.64941 10.12C3.64941 10.4127 3.88593 10.6484 4.17781 10.6484H5.69653C5.9892 10.6484 6.22493 10.4127 6.22493 10.12Z" fill="#6B7280"/>
<path d="M13.0429 7.60539C13.1782 7.60539 13.3126 7.55477 13.4194 7.44798L14.4936 6.3738C14.7016 6.16578 14.7016 5.83354 14.4936 5.62552C14.2856 5.41749 13.9534 5.41749 13.7453 5.62552L12.6712 6.6997C12.4631 6.90772 12.4631 7.23996 12.6712 7.44798C12.7732 7.55477 12.9077 7.60539 13.0429 7.60539Z" fill="#6B7280"/>
<path d="M6.58616 12.7864L5.51198 13.8606C5.30395 14.0686 5.30395 14.4009 5.51198 14.6089C5.61322 14.7102 5.74849 14.7663 5.8885 14.7663C6.02376 14.7663 6.15822 14.7157 6.26502 14.6089L7.3392 13.5347C7.54723 13.3267 7.54723 12.9945 7.3392 12.7864C7.12563 12.5839 6.78866 12.5839 6.58616 12.7864Z" fill="#6B7280"/>
<path d="M10.0001 6.34523C10.2927 6.34523 10.5285 6.10871 10.5285 5.81683V4.29811C10.5285 4.00544 10.292 3.76971 10.0001 3.76971C9.70741 3.76971 9.47168 4.00623 9.47168 4.29811V5.81683C9.47168 6.1095 9.70741 6.34523 10.0001 6.34523Z" fill="#6B7280"/>
<path d="M10.0001 13.8947C9.70741 13.8947 9.47168 14.1313 9.47168 14.4231V15.9419C9.47168 16.2345 9.7082 16.4703 10.0001 16.4703C10.2927 16.4703 10.5285 16.2337 10.5285 15.9419V14.4231C10.5285 14.1305 10.2927 13.8947 10.0001 13.8947Z" fill="#6B7280"/>
<path d="M6.25928 5.63107C6.05126 5.42305 5.71902 5.42305 5.511 5.63107C5.30297 5.8391 5.30297 6.17133 5.511 6.37936L6.58518 7.45354C6.68643 7.55479 6.8217 7.61095 6.9617 7.61095C7.09697 7.61095 7.23143 7.56032 7.33823 7.45354C7.54625 7.24551 7.54625 6.91328 7.33823 6.70525L6.25928 5.63107Z" fill="#6B7280"/>
<path d="M13.4141 12.7865C13.206 12.5784 12.8738 12.5784 12.6658 12.7865C12.4578 12.9945 12.4578 13.3267 12.6658 13.5348L13.74 14.6089C13.8412 14.7102 13.9765 14.7663 14.1165 14.7663C14.2518 14.7663 14.3862 14.7157 14.493 14.6089C14.701 14.4009 14.701 14.0687 14.493 13.8606L13.4141 12.7865Z" fill="#6B7280"/>
</svg>
