<svg width="20" height="21" viewBox="0 0 20 21" fill="none" xmlns="http://www.w3.org/2000/svg">
<path d="M10 2.12C13.3137 2.12 16 4.71692 16 7.9204C16 9.59736 15.2546 11.1364 13.7961 12.5142C13.7324 12.5744 13.6831 12.6469 13.6512 12.7265L13.6251 12.8083L12.6891 16.7251C12.5048 17.4963 11.8236 18.055 11.0181 18.1147L10.8748 18.12H9.12546C8.30655 18.12 7.59 17.6039 7.34866 16.8585L7.31108 16.7246L6.37626 12.8085C6.34955 12.6966 6.29016 12.5945 6.20516 12.5142C4.8153 11.2019 4.07265 9.74353 4.00507 8.15902L4 7.9204L4.00321 7.72894C4.1077 4.61408 6.75257 2.12 10 2.12ZM12.045 15.12H7.955L8.27386 16.4544L8.30004 16.5505C8.39695 16.8498 8.67583 17.0717 9.0116 17.113L9.12546 17.12L10.8379 17.1207L10.9442 17.1174C11.2865 17.0921 11.5726 16.8809 11.6854 16.5918L11.7165 16.4927L12.045 15.12ZM10 3.12C7.36782 3.12 5.21188 5.073 5.0151 7.53357L5.00307 7.74568L4.99977 7.89916L5.00416 8.11641C5.05977 9.42025 5.67758 10.6408 6.89167 11.7871C7.07995 11.9649 7.22191 12.1847 7.30572 12.4278L7.34894 12.5764L7.716 14.12H12.285L12.6722 12.5051L12.7231 12.3543C12.8091 12.1398 12.9409 11.9465 13.1094 11.7873C14.3825 10.5846 15 9.30053 15 7.9204C15 5.27692 12.7689 3.12 10 3.12Z" fill="#6B7280"/>
</svg>
