<svg width="20" height="20" viewBox="0 0 20 20" fill="none" xmlns="http://www.w3.org/2000/svg">
<path d="M18.9499 12.4145C18.8555 12.0731 18.6245 11.7845 18.3023 11.6076L17.9053 11.3903C17.3912 11.1079 17.082 10.5834 17.082 9.99379C17.082 9.40414 17.3912 8.87964 17.9053 8.59724L18.3023 8.37999C18.9661 8.01377 19.1939 7.20068 18.8099 6.56758L17.5181 4.4324C17.1341 3.7993 16.2815 3.57895 15.6177 3.94517L15.2207 4.16242C14.7033 4.44793 14.0752 4.43862 13.535 4.14069C13.0014 3.84586 12.6825 3.33379 12.6825 2.76898V2.32828C12.6825 1.59586 12.0577 1 11.2897 1H8.70601C7.93804 1 7.31325 1.59586 7.31325 2.32828V2.76898C7.31325 3.33381 6.99436 3.84898 6.46067 4.14069C5.92048 4.43862 5.29244 4.44482 4.77503 4.16242L4.38129 3.94517C4.05913 3.76827 3.6849 3.72172 3.32371 3.81172C2.96575 3.90482 2.66313 4.12206 2.47765 4.42931L1.18578 6.56448C0.801782 7.19759 1.03283 8.01068 1.69666 8.38L2.09365 8.59725C2.60781 8.88276 2.91694 9.40414 2.91694 9.99379C2.91694 10.5834 2.60779 11.1048 2.09365 11.3903L1.69666 11.6076C1.03283 11.9738 0.801782 12.7869 1.18578 13.42L2.47765 15.5552C2.66313 15.8624 2.9625 16.0828 3.32371 16.1728C3.68492 16.2659 4.05913 16.2193 4.38129 16.0424L4.77503 15.8252C5.29244 15.5397 5.92048 15.549 6.46067 15.8469C6.99434 16.1417 7.31325 16.6538 7.31325 17.2186V17.6593C7.31325 18.3979 7.93804 19 8.70601 19H11.2897C12.0577 19 12.6825 18.3979 12.6825 17.6593V17.2186C12.6825 16.6538 13.0014 16.1386 13.535 15.8469C14.0752 15.549 14.7033 15.5428 15.2207 15.8252L15.6177 16.0424C15.9398 16.2193 16.3141 16.2659 16.6753 16.1728C17.0332 16.0797 17.3358 15.8624 17.5213 15.5552L18.8132 13.42C18.9987 13.1128 19.0475 12.7559 18.9531 12.4114L18.9499 12.4145ZM18.2437 13.1127L16.9519 15.2479C16.8542 15.4124 16.6915 15.5272 16.5028 15.5769C16.3108 15.6265 16.1123 15.6017 15.9399 15.5055L15.5429 15.2882C14.8237 14.891 13.9484 14.9003 13.2064 15.31C12.4677 15.7165 12.0284 16.4303 12.0284 17.2217V17.6624C12.0284 18.0534 11.69 18.3824 11.2865 18.3824H8.70276C8.3025 18.3824 7.96082 18.0534 7.96082 17.6624V17.2217C7.96082 16.4334 7.52151 15.7165 6.78285 15.31C6.40537 15.102 5.9921 14.9965 5.58534 14.9965C5.17858 14.9965 4.80111 15.0927 4.44639 15.2883L4.05265 15.5055C3.88019 15.5986 3.6817 15.6234 3.4897 15.5769C3.29771 15.5272 3.13826 15.4124 3.04064 15.2479L1.74877 13.1128C1.54376 12.7745 1.66742 12.34 2.01887 12.1476L2.41586 11.9303C3.13501 11.5362 3.56455 10.8131 3.56455 9.99688C3.56455 9.18067 3.13501 8.45757 2.41586 8.06033L2.01887 7.84308C1.66418 7.64756 1.54378 7.21307 1.74552 6.8779L3.0374 4.74272C3.13502 4.57824 3.29447 4.46342 3.48645 4.41377C3.67843 4.36411 3.87694 4.38894 4.04941 4.48515L4.44315 4.7024C5.1623 5.09964 6.03764 5.09033 6.77964 4.68067C7.51833 4.27412 7.95762 3.56033 7.95762 2.76895V2.32825C7.95762 1.9372 8.28954 1.62066 8.69955 1.62066H11.2833C11.6933 1.62066 12.0252 1.93722 12.0252 2.32825V2.76895C12.0252 3.56033 12.4645 4.27412 13.2032 4.68067C13.9451 5.09033 14.8204 5.09655 15.5397 4.7024L15.9366 4.48515C16.2913 4.28963 16.7437 4.40756 16.9487 4.74274L18.2406 6.87791C18.4456 7.21618 18.3219 7.64757 17.9705 7.84309L17.5735 8.06034C16.8543 8.45758 16.4248 9.18068 16.4248 9.9938C16.4248 10.81 16.8543 11.5331 17.5735 11.9273L17.9705 12.1445C18.1429 12.2376 18.2666 12.3928 18.3154 12.5728C18.3674 12.7559 18.3414 12.9452 18.2405 13.1097L18.2437 13.1127ZM9.9978 4.85449C7.0236 4.85449 4.60255 7.16346 4.60255 9.99996C4.60255 12.8365 7.0236 15.1454 9.9978 15.1454C12.972 15.1454 15.393 12.8365 15.393 9.99996C15.393 7.16346 12.972 4.85449 9.9978 4.85449ZM6.19367 12.6939C6.19367 12.0204 6.43122 10.8039 6.79893 10.0002C7.50181 8.47636 8.64726 7.75019 9.2785 7.44908C9.2785 7.52977 9.28501 7.61666 9.29477 7.70667C8.76762 8.17839 6.86726 10.0436 6.92578 12.3681C6.92578 12.455 6.92904 12.995 7.01365 13.5133C6.7045 13.2743 6.43122 12.998 6.19367 12.6939ZM7.82724 14.019L7.80121 13.957C7.61898 13.5815 7.57993 12.6846 7.57993 12.3618C7.52136 10.0125 9.82854 8.0853 9.85124 8.06663C9.93585 7.99835 9.9749 7.89594 9.96188 7.79042C9.861 7.07352 10.0367 6.70733 10.1604 6.54285C10.3947 6.72285 10.5248 7.06733 10.5606 7.207C10.5997 7.37148 10.7689 7.477 10.9414 7.44286C10.9609 7.44286 11.3774 7.37148 11.5531 7.65389L13.3266 10.8847C13.3266 10.8847 13.408 11.046 13.408 11.2198C13.408 11.3067 13.3657 11.3967 13.2876 11.465C13.1672 11.5767 12.9719 11.7102 12.7213 11.7102C12.7148 11.7102 12.0966 11.7288 11.833 11.015C11.7907 10.9002 11.6833 10.8226 11.5564 10.8102C11.5108 10.8071 10.4044 10.6923 10.3361 9.60606C10.3263 9.43537 10.1701 9.30813 9.99117 9.31432C9.81219 9.32363 9.67552 9.4695 9.68527 9.64328C9.73083 10.3664 10.1083 10.8257 10.5346 11.0957C10.4988 11.4836 10.5053 12.3061 11.0227 13.1192C11.026 13.1255 11.3807 13.7741 11.2472 14.3606C10.847 14.4661 10.4272 14.5282 9.99117 14.5282C9.20693 14.5282 8.4715 14.342 7.82066 14.0223L7.82724 14.019ZM11.9404 14.1246C11.9534 13.4449 11.6183 12.849 11.5955 12.8087C11.2538 12.2718 11.1855 11.7225 11.1855 11.3718L11.3026 11.3997C11.6736 12.1632 12.3992 12.3494 12.7442 12.3339C13.1965 12.3339 13.5382 12.1073 13.7465 11.918C13.9482 11.7318 14.0653 11.4773 14.0653 11.2228C14.0653 10.9031 13.9287 10.6363 13.9092 10.6052L12.1259 7.35598C11.8753 6.94942 11.4491 6.82528 11.1171 6.81597C10.9967 6.51803 10.7331 6.04631 10.2255 5.87252C10.1344 5.84148 10.0368 5.85079 9.95217 5.89734C9.89359 5.92838 9.53564 6.14872 9.37295 6.73838C8.81649 6.9401 7.16661 7.69425 6.21319 9.75504C5.9366 10.3509 5.74135 11.105 5.63397 11.7661C5.39318 11.2261 5.25974 10.6302 5.25974 10.0064C5.25974 7.51134 7.38798 5.48163 10.0042 5.48163C12.6204 5.48163 14.7486 7.51134 14.7486 10.0064C14.7486 11.8406 13.5934 13.4233 11.9435 14.131L11.9404 14.1246Z" fill="#6B7280" stroke="#6B7280" stroke-width="0.3"/>
</svg>
