<svg width="20" height="20" viewBox="0 0 20 20" fill="none" xmlns="http://www.w3.org/2000/svg">
<path d="M14.166 17.5V15.8333C14.166 14.9493 13.8148 14.1014 13.1897 13.4763C12.5646 12.8512 11.7167 12.5 10.8327 12.5H4.99935C4.11529 12.5 3.26745 12.8512 2.64233 13.4763C2.01721 14.1014 1.66602 14.9493 1.66602 15.8333V17.5M13.3535 2.75065C14.5641 3.25024 15.4161 4.44223 15.4161 5.83323C15.4161 7.23497 14.5509 8.43462 13.3254 8.92726M18.3327 17.4999V15.8332C18.3321 15.0947 18.0863 14.3772 17.6338 13.7935C17.1813 13.2098 16.5478 12.7929 15.8327 12.6082M11.2493 5.83333C11.2493 7.67428 9.75697 9.16667 7.91602 9.16667C6.07507 9.16667 4.58268 7.67428 4.58268 5.83333C4.58268 3.99238 6.07507 2.5 7.91602 2.5C9.75697 2.5 11.2493 3.99238 11.2493 5.83333Z" stroke="#6B7280" stroke-width="1.2" stroke-linecap="round" stroke-linejoin="round"/>
</svg>
