<svg width="20" height="20" viewBox="0 0 20 20" fill="none" xmlns="http://www.w3.org/2000/svg">
<path d="M4.99935 15.6C5.33072 15.6 5.59935 15.3314 5.59935 15C5.59935 14.6686 5.33072 14.4 4.99935 14.4V15.6ZM1.66602 13.3333H1.06602H1.66602ZM3.33268 5V4.4V5ZM5.99102 5.6C6.32239 5.6 6.59102 5.33137 6.59102 5C6.59102 4.66863 6.32239 4.4 5.99102 4.4V5.6ZM12.4993 4.4C12.168 4.4 11.8993 4.66863 11.8993 5C11.8993 5.33137 12.168 5.6 12.4993 5.6V4.4ZM14.166 5V4.4V5ZM11.5077 14.4C11.1763 14.4 10.9077 14.6686 10.9077 15C10.9077 15.3314 11.1763 15.6 11.5077 15.6V14.4ZM17.7327 11.6667C17.7327 11.998 18.0013 12.2667 18.3327 12.2667C18.6641 12.2667 18.9327 11.998 18.9327 11.6667H17.7327ZM18.9327 8.33333C18.9327 8.00196 18.6641 7.73333 18.3327 7.73333C18.0013 7.73333 17.7327 8.00196 17.7327 8.33333H18.9327ZM7.41679 14.6672C7.23297 14.9429 7.30748 15.3154 7.5832 15.4992C7.85891 15.683 8.23143 15.6085 8.41525 15.3328L7.41679 14.6672ZM11.2493 10L11.7486 10.3328C11.8713 10.1487 11.8828 9.91198 11.7784 9.71689C11.6739 9.52179 11.4706 9.4 11.2493 9.4V10ZM6.24935 10L5.75012 9.66718C5.62738 9.85129 5.61593 10.088 5.72034 10.2831C5.82476 10.4782 6.02807 10.6 6.24935 10.6V10ZM10.0819 5.33282C10.2657 5.0571 10.1912 4.68458 9.9155 4.50077C9.63979 4.31696 9.26726 4.39146 9.08345 4.66718L10.0819 5.33282ZM4.99935 14.4H3.33268V15.6H4.99935V14.4ZM3.33268 14.4C3.04979 14.4 2.77847 14.2876 2.57844 14.0876L1.72991 14.9361C2.15499 15.3612 2.73152 15.6 3.33268 15.6V14.4ZM2.57844 14.0876C2.3784 13.8875 2.26602 13.6162 2.26602 13.3333H1.06602C1.06602 13.9345 1.30482 14.511 1.72991 14.9361L2.57844 14.0876ZM2.26602 13.3333V6.66667H1.06602V13.3333H2.26602ZM2.26602 6.66667C2.26602 6.38377 2.3784 6.11246 2.57844 5.91242L1.72991 5.06389C1.30482 5.48897 1.06602 6.06551 1.06602 6.66667H2.26602ZM2.57844 5.91242C2.77847 5.71238 3.04978 5.6 3.33268 5.6V4.4C2.73153 4.4 2.15499 4.63881 1.72991 5.06389L2.57844 5.91242ZM3.33268 5.6H5.99102V4.4H3.33268V5.6ZM12.4993 5.6H14.166V4.4H12.4993V5.6ZM14.166 5.6C14.4489 5.6 14.7202 5.71238 14.9203 5.91242L15.7688 5.06389C15.3437 4.63881 14.7672 4.4 14.166 4.4V5.6ZM14.9203 5.91242C15.1203 6.11246 15.2327 6.38377 15.2327 6.66667H16.4327C16.4327 6.06551 16.1939 5.48897 15.7688 5.06389L14.9203 5.91242ZM15.2327 6.66667V13.3333H16.4327V6.66667H15.2327ZM15.2327 13.3333C15.2327 13.6162 15.1203 13.8875 14.9203 14.0876L15.7688 14.9361C16.1939 14.511 16.4327 13.9345 16.4327 13.3333H15.2327ZM14.9203 14.0876C14.7202 14.2876 14.4489 14.4 14.166 14.4V15.6C14.7672 15.6 15.3437 15.3612 15.7688 14.9361L14.9203 14.0876ZM14.166 14.4H11.5077V15.6H14.166V14.4ZM18.9327 11.6667V8.33333H17.7327V11.6667H18.9327ZM8.41525 15.3328L11.7486 10.3328L10.7501 9.66718L7.41679 14.6672L8.41525 15.3328ZM11.2493 9.4H6.24935V10.6H11.2493V9.4ZM6.74858 10.3328L10.0819 5.33282L9.08345 4.66718L5.75012 9.66718L6.74858 10.3328Z" fill="#6B7280"/>
</svg>
