<svg width="20" height="21" viewBox="0 0 20 21" fill="none" xmlns="http://www.w3.org/2000/svg">
<path d="M3 4.12C3 3.01543 3.89543 2.12 5 2.12C6.10457 2.12 7 3.01543 7 4.12V5.12H8.58535C8.79127 4.5374 9.34689 4.12 10 4.12C10.6531 4.12 11.2087 4.5374 11.4146 5.12H13V4.12C13 3.01543 13.8954 2.12 15 2.12C16.1046 2.12 17 3.01543 17 4.12V7.12C17 8.22456 16.1046 9.12 15 9.12C13.8954 9.12 13 8.22456 13 7.12V6.12H11.4146C11.264 6.5462 10.9262 6.884 10.5 7.03464V13.2053C10.9262 13.356 11.264 13.6938 11.4146 14.12H13V13.12C13 12.0154 13.8954 11.12 15 11.12C16.1046 11.12 17 12.0154 17 13.12V16.12C17 17.2246 16.1046 18.12 15 18.12C13.8954 18.12 13 17.2246 13 16.12V15.12H11.4146C11.2087 15.7026 10.6531 16.12 10 16.12C9.34689 16.12 8.79127 15.7026 8.58535 15.12H7V16.12C7 17.2246 6.10457 18.12 5 18.12C3.89543 18.12 3 17.2246 3 16.12V13.12C3 12.0154 3.89543 11.12 5 11.12C6.10457 11.12 7 12.0154 7 13.12V14.12H8.58535C8.736 13.6938 9.07379 13.356 9.5 13.2053V7.03464C9.07379 6.884 8.736 6.5462 8.58535 6.12H7V7.12C7 8.22456 6.10457 9.12 5 9.12C3.89543 9.12 3 8.22456 3 7.12V4.12ZM5 3.12C4.44772 3.12 4 3.56771 4 4.12V7.12C4 7.67228 4.44772 8.12 5 8.12C5.55228 8.12 6 7.67228 6 7.12V4.12C6 3.56771 5.55228 3.12 5 3.12ZM15 3.12C14.4477 3.12 14 3.56771 14 4.12V7.12C14 7.67228 14.4477 8.12 15 8.12C15.5523 8.12 16 7.67228 16 7.12V4.12C16 3.56771 15.5523 3.12 15 3.12ZM5 12.12C4.44772 12.12 4 12.5677 4 13.12V16.12C4 16.6723 4.44772 17.12 5 17.12C5.55228 17.12 6 16.6723 6 16.12V13.12C6 12.5677 5.55228 12.12 5 12.12ZM14 13.12V16.12C14 16.6723 14.4477 17.12 15 17.12C15.5523 17.12 16 16.6723 16 16.12V13.12C16 12.5677 15.5523 12.12 15 12.12C14.4477 12.12 14 12.5677 14 13.12Z" fill="#6B7280"/>
</svg>
