<svg width="20" height="21" viewBox="0 0 20 21" fill="none" xmlns="http://www.w3.org/2000/svg">
<path d="M8.5 12.12C8.22386 12.12 8 12.3439 8 12.62C8 12.8961 8.22386 13.12 8.5 13.12H11.5C11.7761 13.12 12 12.8961 12 12.62C12 12.3439 11.7761 12.12 11.5 12.12H8.5ZM4 4.12C2.89543 4.12 2 5.01543 2 6.11999V14.12C2 15.2246 2.89543 16.12 4 16.12H16C17.1046 16.12 18 15.2246 18 14.12V6.12C18 5.01543 17.1046 4.12 16 4.12H4ZM3 6.11999C3 5.56771 3.44772 5.12 4 5.12H16C16.5523 5.12 17 5.56771 17 6.12V14.12C17 14.6723 16.5523 15.12 16 15.12H4C3.44772 15.12 3 14.6723 3 14.12V6.11999Z" fill="#6B7280"/>
</svg>
