<svg width="21" height="21" viewBox="0 0 21 21" fill="none" xmlns="http://www.w3.org/2000/svg">
<mask id="path-1-inside-1_6763_9796" fill="white">
<path d="M16.967 15.4326C16.9157 15.0219 16.7813 14.4353 16.2159 14.0916C15.8651 13.8789 15.4879 13.8115 15.1547 13.903C15.1411 13.9068 15.1292 13.9145 15.1156 13.9183C15.1136 11.9594 15.1132 10.001 15.1136 8.04294C15.114 7.47164 14.9878 6.94823 14.7384 6.48754C14.2117 5.51531 13.4134 4.99741 12.4306 4.98978C11.9688 4.98639 11.5065 4.98978 11.0447 4.98894V4.08579H11.7543C11.9942 4.08579 12.2186 3.97602 12.3702 3.78403C12.5218 3.59247 12.581 3.34369 12.5325 3.10127L12.244 1.65437C12.1684 1.27506 11.8414 1 11.4658 1H8.53428C8.15874 1 7.83169 1.27506 7.75609 1.65437L7.46766 3.10127C7.41958 3.34369 7.47875 3.59247 7.62995 3.78403C7.78156 3.97602 8.0059 4.08579 8.24585 4.08579H8.95583V4.98766C8.51949 4.98851 8.08355 4.98597 7.6468 4.98682L7.56175 4.98724C6.84354 4.98978 6.21737 5.27967 5.69968 5.84928C5.16061 6.44347 4.88738 7.18387 4.88779 8.05014L4.8882 8.67569C4.88902 10.4235 4.88902 12.1717 4.8845 13.9195C4.59443 13.8318 4.26779 13.8581 3.92307 14.0162C3.49946 14.2111 3.21883 14.5883 3.08858 15.138C2.94355 15.7521 3.00477 16.3535 3.07379 16.8095C3.20856 17.6949 3.46659 18.6057 3.88691 19.6758C3.97114 19.8911 4.12604 20 4.3475 20C4.34832 20 4.34955 20 4.34955 20C4.94737 19.9987 5.54519 19.9992 6.14301 19.9987C6.14465 19.9987 6.14629 20 6.14835 20C6.1504 20 6.15163 19.9992 6.15369 19.9987C7.07815 19.9983 8.0022 19.9975 8.92666 19.997L13.821 19.9983C13.8238 19.9983 13.8259 20 13.8288 20C13.8317 20 13.8337 19.9983 13.8366 19.9983L15.6567 19.9987C15.8819 20.011 16.0269 19.897 16.1087 19.6936C16.3996 18.9604 16.6161 18.2831 16.7702 17.6249C16.9304 16.9451 17.0644 16.2098 16.967 15.4326ZM8.10286 3.38734C8.08191 3.36107 8.04945 3.30555 8.06506 3.22799L8.3535 1.78109C8.37116 1.69251 8.44759 1.62852 8.5351 1.62852H11.4667C11.5542 1.62852 11.6306 1.69251 11.6483 1.78109L11.9367 3.22799C11.9523 3.30512 11.9199 3.36064 11.8989 3.38734C11.878 3.41362 11.8319 3.4577 11.7551 3.4577H8.24708C8.16984 3.4577 8.12382 3.41362 8.10286 3.38734ZM9.56598 4.08621H10.4358V4.98894C10.1457 4.98894 9.85605 4.98809 9.56598 4.98851V4.08621ZM5.49835 8.05014C5.49794 7.34831 5.7157 6.752 6.14547 6.2786C6.54361 5.84038 7.02104 5.61745 7.56421 5.61533L7.64926 5.61491C9.24139 5.60982 10.8335 5.60559 12.4261 5.61788C13.1985 5.62381 13.7807 6.00863 14.2064 6.79354C14.404 7.15929 14.5042 7.57929 14.5042 8.04209C14.5038 10.1476 14.5034 12.254 14.5063 14.3595C14.4586 14.4218 14.4126 14.487 14.3724 14.5599C14.2622 14.7583 14.1723 14.9685 14.0831 15.1795C14.0383 15.2855 13.9931 15.3914 13.9451 15.4953C13.8711 15.6551 13.7947 15.8136 13.7166 15.9704C13.4935 15.8907 13.2688 15.8144 13.0415 15.7508C11.6581 15.3614 10.368 15.2312 9.09717 15.3499C8.14066 15.4398 7.20511 15.6453 6.31639 15.9606C6.29421 15.9687 6.27613 15.9746 6.26093 15.9797C6.25065 15.9581 6.23751 15.9288 6.22025 15.889L6.06905 15.5194C5.954 15.2342 5.83855 14.949 5.70296 14.6744C5.6401 14.5472 5.56614 14.44 5.48767 14.3421C5.48931 14.3289 5.49506 14.3175 5.49506 14.3039C5.50081 12.4273 5.49999 10.5506 5.49876 8.67357L5.49835 8.05014ZM3.67695 16.7116C3.61614 16.3141 3.56232 15.7924 3.68188 15.2868C3.76734 14.9261 3.92307 14.7049 4.17246 14.59C4.31298 14.5252 4.44076 14.4925 4.55663 14.4925C4.80849 14.4925 5.00448 14.6472 5.1602 14.9613C5.2888 15.2215 5.39768 15.4919 5.50656 15.7623C5.55792 15.8886 5.60846 16.0153 5.65941 16.1365C5.66311 16.1484 5.67667 16.1836 5.68201 16.195C5.73296 16.3056 5.78678 16.3904 5.84512 16.4573V19.3702C5.3718 19.3706 4.90012 19.3702 4.42638 19.3711C4.03975 18.3764 3.80104 17.5292 3.67695 16.7116ZM6.45404 19.3698V16.5705C6.47581 16.5637 6.49184 16.5646 6.51484 16.5561C7.35713 16.2573 8.24462 16.0623 9.15264 15.9772C10.3491 15.8644 11.569 15.9894 12.8817 16.3582C13.0995 16.4192 13.3131 16.4955 13.5256 16.5722V19.3694L8.92789 19.3681C8.10451 19.3685 7.27866 19.3694 6.45404 19.3698ZM16.1794 17.4762C16.0384 18.078 15.842 18.698 15.5795 19.3698L14.1349 19.3694V16.4764C14.1521 16.4531 14.1719 16.4311 14.1846 16.4061C14.2918 16.1942 14.3958 15.9814 14.4956 15.7661C14.5462 15.6559 14.5938 15.5444 14.6415 15.4326C14.722 15.2423 14.8025 15.052 14.902 14.8727C15.0104 14.6769 15.1481 14.5553 15.3112 14.5103C15.4891 14.4612 15.695 14.5044 15.907 14.6332C16.1695 14.7926 16.3059 15.0562 16.3634 15.5135C16.4477 16.1891 16.3248 16.8561 16.1794 17.4762Z"/>
<path d="M8.16491 13.7682C8.33337 13.7682 8.46937 13.6275 8.46937 13.4542V7.54581C8.46937 7.37204 8.33296 7.23176 8.16491 7.23176C7.99686 7.23176 7.86045 7.37247 7.86045 7.54581V13.4538C7.86004 13.6275 7.99645 13.7682 8.16491 13.7682Z"/>
<path d="M11.8365 13.7682C12.0049 13.7682 12.1409 13.6275 12.1409 13.4542V7.54581C12.1409 7.37204 12.0045 7.23176 11.8365 7.23176C11.6684 7.23176 11.532 7.37247 11.532 7.54581V13.4538C11.532 13.6275 11.668 13.7682 11.8365 13.7682Z"/>
<path d="M10.0007 13.7682C10.1691 13.7682 10.3051 13.6275 10.3051 13.4542V7.54581C10.3051 7.37204 10.1687 7.23176 10.0007 7.23176C9.83264 7.23176 9.69623 7.37247 9.69623 7.54581V13.4538C9.69623 13.6275 9.83223 13.7682 10.0007 13.7682Z"/>
</mask>
<path d="M16.967 15.4326C16.9157 15.0219 16.7813 14.4353 16.2159 14.0916C15.8651 13.8789 15.4879 13.8115 15.1547 13.903C15.1411 13.9068 15.1292 13.9145 15.1156 13.9183C15.1136 11.9594 15.1132 10.001 15.1136 8.04294C15.114 7.47164 14.9878 6.94823 14.7384 6.48754C14.2117 5.51531 13.4134 4.99741 12.4306 4.98978C11.9688 4.98639 11.5065 4.98978 11.0447 4.98894V4.08579H11.7543C11.9942 4.08579 12.2186 3.97602 12.3702 3.78403C12.5218 3.59247 12.581 3.34369 12.5325 3.10127L12.244 1.65437C12.1684 1.27506 11.8414 1 11.4658 1H8.53428C8.15874 1 7.83169 1.27506 7.75609 1.65437L7.46766 3.10127C7.41958 3.34369 7.47875 3.59247 7.62995 3.78403C7.78156 3.97602 8.0059 4.08579 8.24585 4.08579H8.95583V4.98766C8.51949 4.98851 8.08355 4.98597 7.6468 4.98682L7.56175 4.98724C6.84354 4.98978 6.21737 5.27967 5.69968 5.84928C5.16061 6.44347 4.88738 7.18387 4.88779 8.05014L4.8882 8.67569C4.88902 10.4235 4.88902 12.1717 4.8845 13.9195C4.59443 13.8318 4.26779 13.8581 3.92307 14.0162C3.49946 14.2111 3.21883 14.5883 3.08858 15.138C2.94355 15.7521 3.00477 16.3535 3.07379 16.8095C3.20856 17.6949 3.46659 18.6057 3.88691 19.6758C3.97114 19.8911 4.12604 20 4.3475 20C4.34832 20 4.34955 20 4.34955 20C4.94737 19.9987 5.54519 19.9992 6.14301 19.9987C6.14465 19.9987 6.14629 20 6.14835 20C6.1504 20 6.15163 19.9992 6.15369 19.9987C7.07815 19.9983 8.0022 19.9975 8.92666 19.997L13.821 19.9983C13.8238 19.9983 13.8259 20 13.8288 20C13.8317 20 13.8337 19.9983 13.8366 19.9983L15.6567 19.9987C15.8819 20.011 16.0269 19.897 16.1087 19.6936C16.3996 18.9604 16.6161 18.2831 16.7702 17.6249C16.9304 16.9451 17.0644 16.2098 16.967 15.4326ZM8.10286 3.38734C8.08191 3.36107 8.04945 3.30555 8.06506 3.22799L8.3535 1.78109C8.37116 1.69251 8.44759 1.62852 8.5351 1.62852H11.4667C11.5542 1.62852 11.6306 1.69251 11.6483 1.78109L11.9367 3.22799C11.9523 3.30512 11.9199 3.36064 11.8989 3.38734C11.878 3.41362 11.8319 3.4577 11.7551 3.4577H8.24708C8.16984 3.4577 8.12382 3.41362 8.10286 3.38734ZM9.56598 4.08621H10.4358V4.98894C10.1457 4.98894 9.85605 4.98809 9.56598 4.98851V4.08621ZM5.49835 8.05014C5.49794 7.34831 5.7157 6.752 6.14547 6.2786C6.54361 5.84038 7.02104 5.61745 7.56421 5.61533L7.64926 5.61491C9.24139 5.60982 10.8335 5.60559 12.4261 5.61788C13.1985 5.62381 13.7807 6.00863 14.2064 6.79354C14.404 7.15929 14.5042 7.57929 14.5042 8.04209C14.5038 10.1476 14.5034 12.254 14.5063 14.3595C14.4586 14.4218 14.4126 14.487 14.3724 14.5599C14.2622 14.7583 14.1723 14.9685 14.0831 15.1795C14.0383 15.2855 13.9931 15.3914 13.9451 15.4953C13.8711 15.6551 13.7947 15.8136 13.7166 15.9704C13.4935 15.8907 13.2688 15.8144 13.0415 15.7508C11.6581 15.3614 10.368 15.2312 9.09717 15.3499C8.14066 15.4398 7.20511 15.6453 6.31639 15.9606C6.29421 15.9687 6.27613 15.9746 6.26093 15.9797C6.25065 15.9581 6.23751 15.9288 6.22025 15.889L6.06905 15.5194C5.954 15.2342 5.83855 14.949 5.70296 14.6744C5.6401 14.5472 5.56614 14.44 5.48767 14.3421C5.48931 14.3289 5.49506 14.3175 5.49506 14.3039C5.50081 12.4273 5.49999 10.5506 5.49876 8.67357L5.49835 8.05014ZM3.67695 16.7116C3.61614 16.3141 3.56232 15.7924 3.68188 15.2868C3.76734 14.9261 3.92307 14.7049 4.17246 14.59C4.31298 14.5252 4.44076 14.4925 4.55663 14.4925C4.80849 14.4925 5.00448 14.6472 5.1602 14.9613C5.2888 15.2215 5.39768 15.4919 5.50656 15.7623C5.55792 15.8886 5.60846 16.0153 5.65941 16.1365C5.66311 16.1484 5.67667 16.1836 5.68201 16.195C5.73296 16.3056 5.78678 16.3904 5.84512 16.4573V19.3702C5.3718 19.3706 4.90012 19.3702 4.42638 19.3711C4.03975 18.3764 3.80104 17.5292 3.67695 16.7116ZM6.45404 19.3698V16.5705C6.47581 16.5637 6.49184 16.5646 6.51484 16.5561C7.35713 16.2573 8.24462 16.0623 9.15264 15.9772C10.3491 15.8644 11.569 15.9894 12.8817 16.3582C13.0995 16.4192 13.3131 16.4955 13.5256 16.5722V19.3694L8.92789 19.3681C8.10451 19.3685 7.27866 19.3694 6.45404 19.3698ZM16.1794 17.4762C16.0384 18.078 15.842 18.698 15.5795 19.3698L14.1349 19.3694V16.4764C14.1521 16.4531 14.1719 16.4311 14.1846 16.4061C14.2918 16.1942 14.3958 15.9814 14.4956 15.7661C14.5462 15.6559 14.5938 15.5444 14.6415 15.4326C14.722 15.2423 14.8025 15.052 14.902 14.8727C15.0104 14.6769 15.1481 14.5553 15.3112 14.5103C15.4891 14.4612 15.695 14.5044 15.907 14.6332C16.1695 14.7926 16.3059 15.0562 16.3634 15.5135C16.4477 16.1891 16.3248 16.8561 16.1794 17.4762Z" stroke="#6B7280" stroke-width="3.506" mask="url(#path-1-inside-1_6763_9796)"/>
<path d="M8.16491 13.7682C8.33337 13.7682 8.46937 13.6275 8.46937 13.4542V7.54581C8.46937 7.37204 8.33296 7.23176 8.16491 7.23176C7.99686 7.23176 7.86045 7.37247 7.86045 7.54581V13.4538C7.86004 13.6275 7.99645 13.7682 8.16491 13.7682Z" stroke="#6B7280" stroke-width="3.506" mask="url(#path-1-inside-1_6763_9796)"/>
<path d="M11.8365 13.7682C12.0049 13.7682 12.1409 13.6275 12.1409 13.4542V7.54581C12.1409 7.37204 12.0045 7.23176 11.8365 7.23176C11.6684 7.23176 11.532 7.37247 11.532 7.54581V13.4538C11.532 13.6275 11.668 13.7682 11.8365 13.7682Z" stroke="#6B7280" stroke-width="3.506" mask="url(#path-1-inside-1_6763_9796)"/>
<path d="M10.0007 13.7682C10.1691 13.7682 10.3051 13.6275 10.3051 13.4542V7.54581C10.3051 7.37204 10.1687 7.23176 10.0007 7.23176C9.83264 7.23176 9.69623 7.37247 9.69623 7.54581V13.4538C9.69623 13.6275 9.83223 13.7682 10.0007 13.7682Z" stroke="#6B7280" stroke-width="3.506" mask="url(#path-1-inside-1_6763_9796)"/>
</svg>
