<svg width="20" height="21" viewBox="0 0 20 21" fill="none" xmlns="http://www.w3.org/2000/svg">
<path d="M11.9971 3.12612C11.9971 2.2531 10.9568 1.79927 10.3168 2.39312L6.44467 5.9865C6.3522 6.07232 6.23071 6.12 6.10456 6.12H3.49707C2.66864 6.12 1.99707 6.79157 1.99707 7.62V12.62C1.99707 13.4484 2.66864 14.12 3.49707 14.12H6.10456C6.23071 14.12 6.3522 14.1677 6.44467 14.2535L10.3168 17.8469C10.9568 18.4407 11.9971 17.9869 11.9971 17.1139V3.12612ZM7.1249 6.7195L10.9971 3.12612V17.1139L7.1249 13.5205C6.84749 13.2631 6.48302 13.12 6.10456 13.12H3.49707C3.22093 13.12 2.99707 12.8961 2.99707 12.62V7.62C2.99707 7.34386 3.22093 7.12 3.49707 7.12H6.10456C6.48302 7.12 6.84749 6.97694 7.1249 6.7195ZM15.2567 4.74759C15.4623 4.56332 15.7785 4.58066 15.9627 4.78633C18.679 7.81791 18.679 12.422 15.9628 15.4536C15.7785 15.6593 15.4624 15.6766 15.2567 15.4924C15.051 15.3081 15.0337 14.992 15.218 14.7863C17.5939 12.1345 17.5939 8.10542 15.2179 5.45363C15.0337 5.24797 15.051 4.93186 15.2567 4.74759ZM14.0814 13.0532C13.8421 12.9154 13.7599 12.6097 13.8977 12.3704C14.6739 11.0228 14.7294 9.31159 13.897 7.86991C13.759 7.63076 13.8409 7.32496 14.08 7.18689C14.3192 7.04882 14.625 7.13076 14.7631 7.36991C15.7811 9.13318 15.7112 11.2254 14.7642 12.8695C14.6264 13.1088 14.3207 13.191 14.0814 13.0532Z" fill="#6B7280"/>
</svg>
