<svg width="20" height="21" viewBox="0 0 20 21" fill="none" xmlns="http://www.w3.org/2000/svg">
<path d="M12.485 10.12C12.485 10.5342 12.1492 10.87 11.735 10.87C11.3208 10.87 10.985 10.5342 10.985 10.12C10.985 9.70578 11.3208 9.37 11.735 9.37C12.1492 9.37 12.485 9.70578 12.485 10.12ZM9.60274 2.1323C9.4551 2.10069 9.30109 2.13748 9.18368 2.23241C9.06627 2.32734 8.99805 2.47024 8.99805 2.62122L8.99867 17.6188L8.99805 17.6212C8.99805 17.7722 9.0663 17.9152 9.18374 18.0101C9.30119 18.105 9.45525 18.1418 9.6029 18.1101L16.6023 16.6089C16.8328 16.5594 16.9975 16.3557 16.9975 16.12V4.12C16.9975 3.8842 16.8328 3.68045 16.6022 3.63108L9.60274 2.1323ZM9.99805 17.0026V3.23962L15.9975 4.52427V15.7159L9.99805 17.0026ZM7.99988 17.1176V16.1176H3.99805V4.12231H7.99988V3.12231H3.49805C3.2219 3.12231 2.99805 3.34617 2.99805 3.62231V16.6176C2.99805 16.8938 3.2219 17.1176 3.49805 17.1176H7.99988Z" fill="#6B7280"/>
</svg>
