<svg width="16" height="16" viewBox="0 0 16 16" fill="none" xmlns="http://www.w3.org/2000/svg">
<path d="M14.0953 0C13.0454 0 12.1905 0.854857 12.1905 1.90475C12.1905 2.82436 12.8458 3.59389 13.7143 3.77064V7.61904H8.38097V3.77068C9.24954 3.59393 9.90479 2.82439 9.90479 1.90479C9.90475 0.854857 9.04989 0 8 0C6.95011 0 6.09525 0.854857 6.09525 1.90475C6.09525 2.82436 6.7505 3.59389 7.61907 3.77064V7.61904H2.28571V3.77068C3.15429 3.59393 3.80954 2.82439 3.80954 1.90479C3.80954 0.854857 2.95468 0 1.90475 0C0.854821 0 0 0.854857 0 1.90475C0 2.82436 0.65525 3.59389 1.52382 3.77064V12.2293C0.65525 12.4061 0 13.1756 0 14.0953C0 15.1451 0.854857 16 1.90475 16C2.95464 16 3.8095 15.1451 3.8095 14.0953C3.8095 13.1756 3.15425 12.4061 2.28568 12.2294V8.38097H7.619V12.2294C6.75043 12.4061 6.09518 13.1756 6.09518 14.0953C6.09525 15.1451 6.95011 16 8 16C9.04989 16 9.90475 15.1451 9.90475 14.0953C9.90475 13.1756 9.2495 12.4061 8.38093 12.2294V8.38097H14.0952C14.3055 8.38097 14.4762 8.21029 14.4762 8V3.77068C15.3448 3.59389 16 2.82439 16 1.90475C16 0.854857 15.1451 0 14.0953 0ZM3.04761 14.0953C3.04761 14.7254 2.53486 15.2381 1.90475 15.2381C1.27464 15.2381 0.761893 14.7254 0.761893 14.0953C0.761893 13.4651 1.27464 12.9524 1.90475 12.9524C2.53486 12.9524 3.04761 13.4651 3.04761 14.0953ZM1.90475 3.04761C1.27464 3.04761 0.761893 2.53486 0.761893 1.90475C0.761893 1.27464 1.27464 0.761893 1.90475 0.761893C2.53486 0.761893 3.04761 1.27464 3.04761 1.90475C3.04761 2.53486 2.53486 3.04761 1.90475 3.04761ZM9.14286 14.0953C9.14286 14.7254 8.63011 15.2381 8 15.2381C7.36989 15.2381 6.85714 14.7254 6.85714 14.0953C6.85714 13.4651 7.36989 12.9524 8 12.9524C8.63011 12.9524 9.14286 13.4651 9.14286 14.0953ZM8 3.04761C7.36989 3.04761 6.85714 2.53486 6.85714 1.90475C6.85714 1.27464 7.36989 0.761893 8 0.761893C8.63011 0.761893 9.14286 1.27464 9.14286 1.90475C9.14286 2.53486 8.63011 3.04761 8 3.04761ZM14.0953 3.04761C13.4651 3.04761 12.9524 2.53486 12.9524 1.90475C12.9524 1.27464 13.4651 0.761893 14.0953 0.761893C14.7254 0.761893 15.2381 1.27464 15.2381 1.90475C15.2381 2.53486 14.7253 3.04761 14.0953 3.04761Z" fill="#6B7280"/>
</svg>
