<svg width="14" height="17" viewBox="0 0 14 17" fill="none" xmlns="http://www.w3.org/2000/svg">
<path d="M0 2.12C0 1.01543 0.895431 0.119995 2 0.119995C3.10457 0.119995 4 1.01543 4 2.12V3.12H5.58535C5.79127 2.5374 6.34689 2.12 7 2.12C7.65311 2.12 8.20873 2.5374 8.41465 3.12H10V2.12C10 1.01543 10.8954 0.119995 12 0.119995C13.1046 0.119995 14 1.01543 14 2.12V5.12C14 6.22456 13.1046 7.12 12 7.12C10.8954 7.12 10 6.22456 10 5.12V4.12H8.41465C8.264 4.5462 7.92621 4.884 7.5 5.03464V11.2053C7.92621 11.356 8.264 11.6938 8.41465 12.12H10V11.12C10 10.0154 10.8954 9.12 12 9.12C13.1046 9.12 14 10.0154 14 11.12V14.12C14 15.2246 13.1046 16.12 12 16.12C10.8954 16.12 10 15.2246 10 14.12V13.12H8.41465C8.20873 13.7026 7.65311 14.12 7 14.12C6.34689 14.12 5.79127 13.7026 5.58535 13.12H4V14.12C4 15.2246 3.10457 16.12 2 16.12C0.895431 16.12 0 15.2246 0 14.12V11.12C0 10.0154 0.895431 9.12 2 9.12C3.10457 9.12 4 10.0154 4 11.12V12.12H5.58535C5.736 11.6938 6.07379 11.356 6.5 11.2053V5.03464C6.07379 4.884 5.736 4.5462 5.58535 4.12H4V5.12C4 6.22456 3.10457 7.12 2 7.12C0.895431 7.12 0 6.22456 0 5.12V2.12ZM2 1.12C1.44772 1.12 1 1.56771 1 2.12V5.12C1 5.67228 1.44772 6.12 2 6.12C2.55228 6.12 3 5.67228 3 5.12V2.12C3 1.56771 2.55228 1.12 2 1.12ZM12 1.12C11.4477 1.12 11 1.56771 11 2.12V5.12C11 5.67228 11.4477 6.12 12 6.12C12.5523 6.12 13 5.67228 13 5.12V2.12C13 1.56771 12.5523 1.12 12 1.12ZM2 10.12C1.44772 10.12 1 10.5677 1 11.12V14.12C1 14.6723 1.44772 15.12 2 15.12C2.55228 15.12 3 14.6723 3 14.12V11.12C3 10.5677 2.55228 10.12 2 10.12ZM11 11.12V14.12C11 14.6723 11.4477 15.12 12 15.12C12.5523 15.12 13 14.6723 13 14.12V11.12C13 10.5677 12.5523 10.12 12 10.12C11.4477 10.12 11 10.5677 11 11.12Z" fill="#6B7280"/>
</svg>
